<svg id="Calque_1" data-name="Calque 1" xmlns="http://www.w3.org/2000/svg" viewBox="0 0 330 321"><defs><style>.cls-1{fill:#f0dfcf;}.cls-1,.cls-2,.cls-3,.cls-4,.cls-5,.cls-6,.cls-7{fill-rule:evenodd;}.cls-2{fill:#794530;}.cls-3{fill:#592510;}.cls-5{fill:#fff;}.cls-6{fill:#d53612;}.cls-7{fill:#5a6882;}</style></defs><title>Bruno</title><path class="cls-1" d="M170.54,12.5A149.49,149.49,0,1,1,21.05,162,149.49,149.49,0,0,1,170.54,12.5Z"/><path class="cls-2" d="M141.31,164h55v36.55c0,8.16,8,11.73,11.7,12.58,51.39,11.8,61.2,31.31,62.5,61.46a149.45,149.45,0,0,1-203.88-.13c.58-31,9.06-49.28,61.53-61.33,5.69-1.31,13.14-4.32,13.14-12.57V164Z"/><path class="cls-3" d="M140.25,163.85h57.13c0,22.58-15.66,32.86-28.73,32.86s-28.4-10.38-28.4-32.86Z"/><path class="cls-2" d="M152.37,185.46c-7.13-4.15-17.52-18.18-21.58-27.38-5-11.42-6.84-24.89-6.46-37.61,2.11-70,91.78-57.81,89.35.16-.53,12.62-1.87,25.45-7.17,37.45-4,9.2-14.43,23.23-21.56,27.38a34.79,34.79,0,0,1-16.12,3.91c-6.37,0-12.87-1.81-16.46-3.91Z"/><path class="cls-3" d="M167.17,133.7c-.87,3.25-4.54,12.86,6.46,14.46-9.34,1.52-11.82-4.62-6.46-14.46Z"/><path class="cls-4" d="M149.24,121.38c1.75,0,3.17,2.13,3.17,4.76s-1.42,4.75-3.17,4.75-3.17-2.13-3.17-4.75,1.42-4.76,3.17-4.76Zm39.14,0c1.76,0,3.18,2.13,3.18,4.76s-1.42,4.75-3.18,4.75-3.17-2.13-3.17-4.75,1.42-4.76,3.17-4.76Z"/><path class="cls-4" d="M139.41,115.91c3.39.73,21.51,3.74,21.65.53.28-6.12-16.51-3.47-21.65-.53Z"/><path class="cls-4" d="M198.59,115.91c-3.38.73-21.5,3.74-21.65.53-.28-6.12,16.52-3.47,21.65-.53Z"/><path class="cls-5" d="M201.55,210.14a18.6,18.6,0,0,0,6.47,3c51.39,11.8,61.2,31.31,62.5,61.46a149.45,149.45,0,0,1-203.88-.13c.58-31,9.06-49.28,61.53-61.33a25.32,25.32,0,0,0,7.55-2.89,153.5,153.5,0,0,0,65.83-.08Z"/><path class="cls-5" d="M184.75,158.57c-4.54,17.12-27.34,17.16-31.87,0,10.27,3.59,20.68,3.6,31.87,0Z"/><path class="cls-6" d="M180.36,310.85l-7.42-77.78,5.13-9.46-9.82-9.86-9.82,9.86,5.11,9.68-6.89,77.48c4,.33,8.13.51,12.26.51,3.85,0,7.67-.15,11.45-.43Z"/><path class="cls-7" d="M201.55,210.14a18.6,18.6,0,0,0,6.47,3c51.39,11.8,61.2,31.31,62.5,61.46a149.45,149.45,0,0,1-203.88-.13c.58-31,9.06-49.28,61.53-61.33a25.32,25.32,0,0,0,7.55-2.89l32.93,83.55,32.9-83.63Z"/><path class="cls-4" d="M206.84,121.84c-.52,6.06-.11,13.55-.11,19.73l4.19-.1c.05-6.17.77-10.81,4-13,8.27,4.94,16.49-11.14,7.87-16.09a7.81,7.81,0,0,0,.91-14.29,7.81,7.81,0,0,0-.95-14.3,7.79,7.79,0,0,0-5.14-13c2.93-6.57-4-13.35-10.49-10.2a7.8,7.8,0,0,0-11.83-6.38,7.8,7.8,0,0,0-13.05-2.61,7.81,7.81,0,0,0-13.13-1.12,7.8,7.8,0,0,0-13.19,1.25,7.81,7.81,0,0,0-13.18,2.48,7.8,7.8,0,0,0-11.83,6.38c-6.53-3.19-13.41,3.67-10.49,10.2A7.79,7.79,0,0,0,115,83.45c-6.08,1.5-6.56,10.93-1.3,14.29-5.45,3.22-4.59,12.17,1.25,14.55-7.67.5-2.65,23.76,8.21,16.21,3.24,2.15,4,6.79,4,13l4.19.1c0-6.19.4-13.68-.11-19.75,3.24-2.9,3.4-10,.44-13.14a8,8,0,0,0,2.55-10.76c3.64,1.62,10.35-3.59,8.34-8,3.7,4,11.7,1.88,12.57-3,2.58,5.2,10.71,4.61,13-.25,2,4.45,10.86,5.45,13.44.25.46,4.78,9.28,7.15,13,3.11-1.81,4.48,4.59,9.78,8.74,7.86a8.13,8.13,0,0,0,3,10.76c-3,3.19-2.67,10.26.58,13.16Z"/><path class="cls-2" d="M121.7,124.92c-3.22,1-4.29,8.43-2.27,15.73s6.31,12.52,9.59,11.65,4.29-7.5,2.27-14.81-3.46-14.53-9.59-12.57Zm94.6,0c3.23,1,4.29,8.43,2.28,15.73s-6.31,12.52-9.59,11.65-4.29-7.5-2.27-14.81,3.46-14.53,9.58-12.57Z"/></svg>