<svg id="Calque_1" data-name="Calque 1" xmlns="http://www.w3.org/2000/svg" viewBox="0 0 330 321"><defs><style>.cls-1{fill:#f0dfcf;}.cls-1,.cls-2,.cls-3,.cls-4,.cls-5,.cls-6,.cls-7,.cls-8,.cls-9{fill-rule:evenodd;}.cls-2{fill:#ebb484;}.cls-3{fill:#83515f;}.cls-4{fill:#da9668;}.cls-6{fill:#fff;}.cls-7{fill:#72706f;}.cls-8{fill:#dea183;}.cls-9{fill:#898684;}</style></defs><title>Frederic</title><path class="cls-1" d="M171,13.51A149.49,149.49,0,1,1,21.51,163,149.49,149.49,0,0,1,171,13.51Z"/><path class="cls-2" d="M143.66,149.82h55v36.54c0,8.16,8,11.74,11.7,12.59,57.83,13.28,63,36.32,62.66,73.3a149.47,149.47,0,0,1-204,.09c-.93-38.46,2.51-59.86,61.45-73.39,5.69-1.31,13.14-4.32,13.14-12.57V149.82Z"/><path class="cls-3" d="M207.67,198.07a19.27,19.27,0,0,0,2.69.88c57.84,13.28,63,36.32,62.67,73.3a149.47,149.47,0,0,1-204,.09c-.93-38.46,2.51-59.86,61.45-73.39a32.39,32.39,0,0,0,3.59-1l37.21,8.6,36.35-8.44Z"/><path class="cls-4" d="M142.6,149.69h57.13c0,22.58-15.66,32.86-28.73,32.86s-28.4-10.39-28.4-32.86Z"/><path class="cls-2" d="M154.58,172.63c-7.12-4.15-17.51-18.18-21.57-27.36-14.89-33.73-16.56-95.09,37.67-95.09s53.22,60.65,38,95.09c-4.06,9.18-14.43,23.21-21.56,27.36A34.71,34.71,0,0,1,171,176.54c-6.36,0-12.86-1.81-16.45-3.91Z"/><path class="cls-4" d="M169,120.48c-.87,3.25-4.54,12.86,6.45,14.45-9.33,1.53-11.81-4.61-6.45-14.45Z"/><path class="cls-5" d="M203.5,100.45c-3.38.73-21.49,3.74-21.64.53-.28-6.11,16.51-3.47,21.64-.53Zm-65.25,0c3.38.73,21.49,3.74,21.63.53.28-6.11-16.5-3.47-21.63-.53Z"/><path class="cls-6" d="M188.31,143.57c-4.8,18.68-30.95,18.14-34.88,0,11.94,4.22,22.73,4.3,34.88,0Z"/><path class="cls-7" d="M194.49,65.13c15.76-7.82,19.48,19.08,16.94,34-1.1,6.52-1.24,14.81-1.24,21.49l4.06-.09c.07-8.44.73-12,6.84-8,16.84-58.77-1.41-79.13-50-79.13s-63.49,23.3-50,79c5.46-3.25,7.14.27,6.5,8.6l4.06.09c0-6.65-.15-15-1.25-21.49-2.54-15,1-41.45,17.21-34.42,13.23,5.74,36.43,5.19,46.89,0Z"/><path class="cls-2" d="M218.8,109.49c3.23,1,4.29,8.42,2.28,15.72s-6.31,12.51-9.58,11.64-4.29-7.5-2.27-14.8,3.46-14.52,9.57-12.56Zm-95.86,0c-3.22,1-4.29,8.42-2.27,15.72s6.31,12.51,9.58,11.64,4.29-7.5,2.27-14.8-3.46-14.52-9.58-12.56Z"/><path class="cls-8" d="M157.6,311.92l7.71-75.3-8.78-15.81,14.79-14.3,14.8,14.3-8.79,15.81,7.06,75.3q-6.62.57-13.39.57t-13.4-.57Z"/><path class="cls-9" d="M149.8,70.39c-1.38,7.64-4.56,20-11.21,24.83,2.6-12.66,2.08-15.92,1.95-21.4-1.34,10.56-4.7,20.06-12.66,27.15-7.78-11.11-10.36-23.62-3.52-38.9,2.86-7.65,20.41-15.54,39-18.85,52.42-9.29,59.53,29.77,56.5,55-12.82-.92-30.94-12.82-38.37-18.15,4.31,5.09,5.27,6.91,12.13,11.76-12.1-2.61-21.72-8.78-25.18-11.76.39,1.83,1.35,3.69,7,11A84.81,84.81,0,0,1,149.8,70.39Z"/><path class="cls-5" d="M151.3,106.83c1.75,0,3.17,2.13,3.17,4.76s-1.42,4.76-3.17,4.76-3.17-2.13-3.17-4.76,1.42-4.76,3.17-4.76Zm39.14,0c1.76,0,3.17,2.13,3.17,4.76s-1.41,4.76-3.17,4.76-3.17-2.13-3.17-4.76,1.42-4.76,3.17-4.76Z"/></svg>