<svg id="Calque_1" data-name="Calque 1" xmlns="http://www.w3.org/2000/svg" viewBox="0 0 330 321"><defs><style>.cls-1{fill:#f0dfcf;}.cls-1,.cls-2,.cls-3,.cls-4,.cls-5,.cls-6,.cls-7,.cls-8,.cls-9{fill-rule:evenodd;}.cls-2{fill:#ffc;}.cls-3{fill:#f5d5b8;}.cls-4{fill:#dbae8d;}.cls-6{fill:#fff;}.cls-7{fill:#d4bba1;}.cls-8{fill:#9b717b;}.cls-9{fill:#5a6882;}</style></defs><title>Plan de travail 1</title><path class="cls-1" d="M171,13.69A149.49,149.49,0,1,1,21.51,163.18,149.49,149.49,0,0,1,171,13.69Z"/><path class="cls-2" d="M108.62,90.47a106.52,106.52,0,0,0-2.79,17.6c-5,35.82-1.56,75.48-20.79,84.56,5.34,1.15,9.34.34,16.35-3.84-4.74,14.71-10.52,19.92-22.4,28.3,18.81,22.42,161.06,23.37,184,0-11.88-8.38-17.66-13.59-22.41-28.3,7,4.18,11,5,16.36,3.84-19.23-9.08-15.78-48.74-20.79-84.56a107.58,107.58,0,0,0-2.79-17.6c-6.26-25.33-23.52-38.21-41.86-43.42a58.06,58.06,0,0,0-9.62-2.14,76.7,76.7,0,0,0-10.37-.7h-1.07a75.06,75.06,0,0,0-10.36.7,58.06,58.06,0,0,0-9.62,2.14c-18.34,5.21-35.6,18.09-41.86,43.42Z"/><path class="cls-3" d="M151.76,161.51c.11,23.69,7.11,47.53-21.24,54C80.8,227,70.58,244.29,69.15,272.6a149.46,149.46,0,0,0,203.44.23c-2.17-27.7-13.53-46.09-62.22-57.28C182,209,189,185.2,189.13,161.51Z"/><path class="cls-3" d="M217.3,123.4c3.28.63,4.94,6.93,3.68,14.29s-5,12.88-8.26,12.35-4.94-6.94-3.67-14.29-.19-14,8.25-12.35Z"/><path class="cls-3" d="M124.69,123.4c-3.27.63-4.94,6.93-3.67,14.29s5,12.88,8.25,12.35,4.94-6.94,3.68-14.29.19-14-8.26-12.35Z"/><path class="cls-4" d="M150.83,173.18c4.37,4.66,8.58,6.78,10.57,8.14,7.93,5.43,10.62,5.43,18.56,0,2-1.36,6.2-3.47,10.57-8.14-11.59,29.34-27.94,29-39.7,0Z"/><path class="cls-3" d="M160.11,183c-5.23-3-23.52-18.51-27.66-27.88-8.41-19-4.23-39,1.74-58.15,6.53-20.88,36.56-5.64,49.87-22.18,7.88,18.88,20.17,10.74,23.75,22.18,6,19.11,10.15,39.12,1.74,58.15-4.14,9.37-22.43,24.83-27.66,27.88-9.32,5.43-12.47,5.43-21.78,0Z"/><path class="cls-5" d="M152.61,119.62c2,0,3.57,2.4,3.57,5.35s-1.6,5.36-3.57,5.36-3.56-2.4-3.56-5.36,1.59-5.35,3.56-5.35Zm36.77,0c2,0,3.57,2.4,3.57,5.35s-1.59,5.36-3.57,5.36-3.56-2.4-3.56-5.36,1.59-5.35,3.56-5.35Z"/><path class="cls-6" d="M186,156.53c-4.79,14-24.94,14-29.94,0a51.42,51.42,0,0,0,29.94,0Z"/><path class="cls-4" d="M168.12,135.14c-1,3.31-5.38,13.09,7.64,14.71-11,1.56-14-4.7-7.64-14.71Z"/><path class="cls-7" d="M140.29,114.62c-1.81,1.89,6.24-.11,13.32.61,4.65.47,8.48,2.08,9.21-.2.67-2.07-3.43-3.17-9-3.6-4.48-.35-11.53,1.11-13.54,3.19Zm61.41,0c1.82,1.89-6.23-.11-13.31.61-4.65.47-8.48,2.08-9.21-.2-.67-2.07,3.43-3.17,9-3.6,4.48-.35,11.53,1.11,13.53,3.19Z"/><path class="cls-8" d="M130.52,215.55C80.8,227,70.58,244.29,69.15,272.6a149.46,149.46,0,0,0,203.44.23c-2.17-27.7-13.53-46.09-62.22-57.28l-39.37,31-40.48-31Z"/><path class="cls-2" d="M125.34,113.06c10.68,0,17.5-1.42,25-11.25-.27,3.14-4.27,7.16-6.07,7.83,5.37-.11,14.77-3.89,18.76-8.14-3,4.45-4.93,6.5-8.4,8.37,11.88,2.13,30.94-5.42,36.35-13.54,4,9.91,15.15,18,22.56,18.23,5.87-17.76-.12-48.07-32.87-52.54-39.52-5.4-56.51,15.69-55.34,51Z"/><path class="cls-6" d="M106,222.85c-.13,16.62,23.22,43.71,65,23.69l-40.48-31a176.9,176.9,0,0,0-24.56,7.3Z"/><path class="cls-6" d="M235.73,223.31c0,16.65-23.39,43.06-64.82,23.23l0,0,.05,0,39.37-31a163.4,163.4,0,0,1,25.36,7.76Z"/><path class="cls-9" d="M167.48,126.94c.34,7.91-6.93,13.24-14.82,12.91-12.5-.53-17.87-16.16-12.3-20.3s26.77-.5,27.12,7.39Zm8.79,0c-.34,7.91,6.92,13.24,14.82,12.91,12.5-.53,17.87-16.16,12.3-20.3s-26.77-.5-27.12,7.39ZM174,128.29a16.36,16.36,0,0,0,17.23,13.8c12.93-.54,18.29-14.89,19.75-25.39-5.43-3.42-23.43-2-32.51,3.23-5.6,3.21-7.51,3.21-13.11,0-9.08-5.21-27.08-6.65-32.52-3.23,1.44,10.29,7.24,24.86,19.76,25.39a16.35,16.35,0,0,0,17.22-13.8,2.09,2.09,0,0,1,4.18,0Z"/></svg>