<?xml version="1.0" encoding="utf-8"?>
<!-- Generator: Adobe Illustrator 23.0.3, SVG Export Plug-In . SVG Version: 6.00 Build 0)  -->
<svg version="1.1" id="Calque_1" xmlns="http://www.w3.org/2000/svg" xmlns:xlink="http://www.w3.org/1999/xlink" x="0px" y="0px"
	 viewBox="0 0 1280 800" style="enable-background:new 0 0 1280 800;" xml:space="preserve">
<style type="text/css">
	.st0{display:none;fill:url(#SVGID_1_);stroke:url(#SVGID_2_);}
	.st1{fill:url(#SVGID_3_);stroke:url(#SVGID_4_);}
	.st2{fill:url(#SVGID_5_);stroke:url(#SVGID_6_);}
	.st3{fill:url(#SVGID_7_);stroke:url(#SVGID_8_);}
	.st4{fill:url(#SVGID_9_);stroke:url(#SVGID_10_);}
	.st5{fill:url(#SVGID_11_);stroke:url(#SVGID_12_);}
	.st6{fill:url(#SVGID_13_);stroke:url(#SVGID_14_);}
	.st7{fill:url(#SVGID_15_);stroke:url(#SVGID_16_);}
	.st8{fill:url(#SVGID_17_);stroke:url(#SVGID_18_);}
	.st9{fill:url(#SVGID_19_);stroke:url(#SVGID_20_);}
	.st10{fill:url(#SVGID_21_);stroke:url(#SVGID_22_);}
	.st11{fill:url(#SVGID_23_);stroke:url(#SVGID_24_);}
	.st12{fill:url(#SVGID_25_);stroke:url(#SVGID_26_);}
	.st13{fill:url(#SVGID_27_);stroke:url(#SVGID_28_);}
	.st14{fill:url(#SVGID_29_);stroke:url(#SVGID_30_);}
	.st15{fill:url(#SVGID_31_);stroke:url(#SVGID_32_);}
	.st16{fill:url(#SVGID_33_);stroke:url(#SVGID_34_);}
	.st17{fill:url(#SVGID_35_);stroke:url(#SVGID_36_);}
	.st18{fill:url(#SVGID_37_);stroke:url(#SVGID_38_);}
	.st19{fill:url(#SVGID_39_);stroke:url(#SVGID_40_);}
	.st20{fill:url(#SVGID_41_);stroke:url(#SVGID_42_);}
	.st21{fill:url(#SVGID_43_);stroke:url(#SVGID_44_);}
	.st22{fill:url(#SVGID_45_);stroke:url(#SVGID_46_);}
	.st23{fill:url(#SVGID_47_);stroke:url(#SVGID_48_);}
	.st24{fill:url(#SVGID_49_);stroke:url(#SVGID_50_);}
	.st25{fill:url(#SVGID_51_);stroke:url(#SVGID_52_);}
	.st26{fill:url(#SVGID_53_);stroke:url(#SVGID_54_);}
</style>
<g>
	<linearGradient id="SVGID_1_" gradientUnits="userSpaceOnUse" x1="-52.2564" y1="416.6796" x2="1100.4633" y2="416.6796">
		<stop  offset="0" style="stop-color:#0F24ED"/>
		<stop  offset="1" style="stop-color:#000000"/>
	</linearGradient>
	<linearGradient id="SVGID_2_" gradientUnits="userSpaceOnUse" x1="-52.7564" y1="416.6796" x2="1100.9633" y2="416.6796">
		<stop  offset="0" style="stop-color:#FFFFFF"/>
		<stop  offset="1" style="stop-color:#000000"/>
	</linearGradient>
	<path class="st0" d="M-52.26-15.68c384.24,0,768.48,0,1152.72,0c0,288.24,0,576.48,0,864.72c-384.24,0-768.48,0-1152.72,0
		C-52.26,560.8-52.26,272.56-52.26-15.68z M380.13,287.83c-1.84,0.27-3.79,1.08-5.49,0.72c-3.9-0.85-7.7-2.21-11.5-3.47
		c-1.94-0.64-3.45-0.7-4.03,2.07c3.88,1.24,7.88,2.21,11.63,3.8c4.61,1.96,8.14-0.14,12.07-2.1
		C381.71,288.43,380.91,288.13,380.13,287.83c1.41-0.42,2.83-0.87,4.26-1.27c3.95-1.11,8.39-1.42,11.77-3.47
		c7.15-4.35,13.7-9.66,20.57-14.48c11.41-7.99,22.9-15.87,34.31-23.87c3.66-2.57,7.16-5.36,10.63-7.97
		c-3.9-11.19-9.42-21.14-16.07-30.33c-10.28-14.19-21-28.06-31.75-41.9c-5.16-6.65-10.22-13.15-11.77-21.82
		c-0.59-3.32-2.7-6.36-4.12-9.53c-0.33,0.05-0.66,0.11-0.99,0.16c-0.65,6.29-1.59,12.56-1.89,18.87
		c-0.7,14.67,1.06,29.15,4.36,43.43c0.92,3.97,1.83,8.2,3.92,11.58c2.33,3.78,5.85,6.9,9.12,10.02c5.26,5.04,9.14,11.99,17.6,12.78
		c-3.45,0.82-10.01-1.15-12.26-3.28c-5.25-4.97-10.52-9.91-15.99-15.06c-1.71,3.1-3.26,5.87-4.78,8.66
		c-0.89,1.63-1.72,2.11-3.58,0.86c-4.92-3.3-10.03-6.32-15.09-9.42c-3.59-2.2-7.21-4.33-11.49-6.89c1.51,17.32-3.62,32.15-12.42,46
		c4.9,4.35,9.47,8.52,14.22,12.47c0.7,0.58,2.51,0.54,3.39,0.05c3.48-1.99,6.74-4.37,10.19-6.41c3.98-2.34,8.08-4.47,12.13-6.7
		c0.14,1.1-0.08,1.55-0.43,1.83c-5.36,4.13-10.72,8.26-16.12,12.33c-5.36,4.04-10.24,8.9-17.29,10.06
		c-1.39,0.23-2.83,0.49-4.11,1.05c-0.71,0.31-1.66,1.26-1.64,1.9c0.13,5.14,0.46,10.27,0.73,15.4c0.54,0.03,1.07,0.07,1.61,0.1
		c0.43-3.68,0.85-7.36,1.32-11.37c3.43,1.21,6.7,2.55,10.08,3.51C372.35,286.21,376.26,286.94,380.13,287.83z M347.74,390.07
		c-1.82,0.66-3.79,1.05-5.42,2.02c-4.28,2.54-8.45,5.26-12.57,8.04c-1.48,1-2.73,2.35-4.09,3.54c-0.28-0.32-0.56-0.64-0.84-0.97
		c3.3-2.94,6.36-6.24,9.97-8.73c6.44-4.46,12.5-8.98,13.33-17.82c-0.71,0.24-1.47,0.41-2.16,0.75
		c-14.72,7.11-29.42,14.26-44.16,21.34c-1.57,0.75-3.29,1.54-4.97,1.61c-4.46,0.18-8.15,1.74-11.4,4.78
		c-2.77,2.59-5.93,4.78-8.66,7.4c-2.25,2.15-4.77,4.39-6.02,7.12c-1.63,3.58-2.39,7.63-2.96,11.56c-0.28,1.9,0.25,4.28,1.26,5.92
		c3.26,5.33,6.98,10.39,10.39,15.64c1.72,2.66,4.28,5.43,4.5,8.29c0.81,10.98,6.67,18.78,14.45,25.64c0.65,0.58,1.57,1.09,2.42,1.18
		c7.29,0.79,14.59,1.56,21.9,2.08c1.02,0.07,2.52-1.03,3.16-2c6.1-9.27,11.88-18.76,18.12-27.94c4.4-6.46,5.46-6.71,10.2-5.36
		c-5.56,1.39-5.7,1.3-8.4,5.53c-3.18,4.98-6.18,10.09-9.05,15.25c-2.16,3.88-4,7.94-6.19,12.34c10.15,0.62,19.62,1.19,29.3,1.78
		c2.08-7.73,4.14-15.08,6.01-22.48c1.59-6.29,4.22-10.21,8.46-11.74c-2.21,3.72-5.96,6.58-4.99,11.43
		c10.21-3.61,71.65-40.92,75.78-46.05c-0.53-0.03-1.01-0.17-1.45-0.08c-9.93,2.05-19.89,1.91-29.74-0.2
		c-3.09-0.66-5.54-0.35-8.09,1.22c-11.31,6.97-22.6,13.98-34,20.8c-1.56,0.94-3.72,0.88-4.87,1.13
		c12.4-8.13,25.14-16.49,38.25-25.09c-4.87-2.33-9.55-3.87-13.44-6.56c-8.85-6.11-17.35-12.74-25.91-19.26
		c-1.82-1.38-3.37-1.97-5.41-0.57c-7.43,5.07-14.94,10.03-22.34,15.15c-3.1,2.15-5.99,4.61-8.97,6.93c-0.24-0.3-0.49-0.61-0.73-0.91
		c6.86-7.99,14.47-15.17,23.71-21.24c-1.71-0.58-3.04-1.03-4.37-1.48c5.23-0.67,10.45-1.41,15.69-1.93
		c0.89-0.09,2.02,0.55,2.79,1.16c2.14,1.7,4.09,3.63,6.2,5.36c9.3,7.64,19.68,13.41,30.83,17.89c14.26,5.73,29.18,6.42,44.21,5.63
		c7.1-0.37,13.79-1.37,19.25-7.76c9.05-10.61,16.39-21.99,21.58-34.87c4.77-11.82,9.56-23.64,14.64-35.33
		c1.44-3.31,2.05-6.21,1.31-9.87c-4.95-24.71-14.87-47.4-27.44-69.06c-1.68-2.9-3.46-5.75-5.2-8.62c0.3-0.18,0.59-0.36,0.89-0.54
		c4.1,4.57,8.29,9.06,12.28,13.73c10.65,12.45,21.36,24.85,31.77,37.51c14.62,17.79,26.99,37.14,37.36,57.66
		c8.85,17.51,15.92,35.73,19.84,55.11c2.58,12.72,4.02,25.52,4.16,38.45c0.06,5.43-0.49,10.93-1.42,16.29
		c-1.82,10.55-3.54,21.18-6.32,31.5c-4.18,15.49-11.27,29.86-19.2,43.79c-8.51,14.95-18.55,28.81-30.9,40.82
		c-7.22,7.02-15.04,13.41-22.95,20.4c3.69-1.15,7.09-2.33,10.56-3.28c23.05-6.34,44.85-15.72,65.38-27.84
		c21.56-12.74,40.52-28.69,56.45-48.19c10.89-13.34,19.54-27.98,26.83-43.51c0.95-2.03,1.02-3.39-1.32-4.9
		c-4.84-3.11-9.33-6.76-14.71-10.73c1.79-0.09,2.62-0.32,3.35-0.14c4.69,1.18,9.37,2.4,14.01,3.73c1.71,0.49,3.25,1.06,4.07-1.21
		c0.92-2.56,2.17-5.03,2.78-7.66c3.04-12.96,6.48-25.87,8.69-38.98c1.96-11.65,2.87-23.53,3.54-35.35c0.45-7.96-0.11-16-0.64-23.98
		c-0.73-11.24-1.33-22.54-2.93-33.67c-2.02-14.11-5-28.08-7.54-42.12c-0.19-1.06-0.12-2.16-0.18-3.25
		c9.88,27.14,16.71,54.85,19.11,83.57c2.41,28.93-0.95,57.63-3.29,86.41c6.28-11.16,9.74-23.31,11.9-35.69
		c2.19-12.57,3.52-25.34,4.45-38.08c0.92-12.56,0.86-25.19,1.22-37.79c1.44,11.47,2.56,22.94,2.91,34.43
		c0.44,14.78,0.61,29.64-2.15,44.24c-2.03,10.75-4.57,21.44-7.57,31.96c-1.96,6.86-5.15,13.37-8.01,20.59c6.44,0,12.54,0,18.63,0
		c0.03,0.27,0.06,0.53,0.09,0.8c-7.97,3.15-15.94,6.3-24.46,9.67c2.62,8.24,5.23,16.48,7.84,24.71c-0.29,0.14-0.58,0.28-0.87,0.43
		c-4.33-5.21-8.67-10.42-12.59-15.13c-9.12,11.3-17.42,23.02-27.21,33.33c-10.5,11.06-21.68,21.76-33.85,30.89
		c-30.59,22.94-63.7,41.06-102.25,46.77c-11.14,1.65-22.39,2.76-33.63,3.45c-7.24,0.44-14.56-0.49-21.85-0.56
		c-13.5-0.11-26.71-2.35-39.84-5.13c-27.32-5.78-52.77-16.16-76.01-31.7c-15.94-10.66-29.9-23.52-41.96-38.48
		c-11.98-14.87-21.43-31.15-28.22-48.98c-1.59-4.17-3.19-8.33-4.78-12.5c5.94,44.78,25.87,81.84,61.2,110.43
		c-0.96,0.07-1.62-0.09-2.18-0.42c-16.25-9.35-31.59-20.05-44.93-33.21c-9.66-9.52-18.98-19.54-27.29-30.24
		c-17.02-21.91-29.76-46.31-38.77-72.58c-4.9-14.28-8.99-28.79-10.81-43.83c-1.3-10.8-3.16-21.62-3.38-32.45
		c-0.29-14.42,0.32-28.89,1.41-43.28c0.75-9.96,2.38-19.94,4.66-29.68c2.62-11.2,6-22.26,9.73-33.14c5.76-16.8,13.8-32.58,23-47.75
		c3.35-5.52,7.04-10.84,10.57-16.25c-1.78,0.87-3.09,2.12-4.18,3.53c-9.04,11.68-17.83,23.49-25.21,36.37
		c-8.24,14.4-15.42,29.23-20.86,44.88c-4.99,14.36-9.43,28.9-11.32,44.05c-1.57,12.55-3.64,25.11-4.07,37.72
		c-0.46,13.44,0.5,26.95,1.33,40.41c0.48,7.89,1.48,15.8,3.02,23.55c3.08,15.6,6.79,31.13,12.92,45.84
		c5.63,13.5,11.87,26.79,18.47,39.84c6.74,13.32,15.52,25.43,24.94,36.98c6.47,7.93,13.33,15.59,20.61,22.78
		c6.58,6.5,13.62,12.64,21.04,18.15c10.15,7.53,20.58,14.75,31.38,21.3c13.87,8.41,28.59,15.23,43.89,20.7
		c21.4,7.65,43.25,13.55,65.93,15.79c11.69,1.15,23.41,2.55,35.13,2.69c11.14,0.13,22.33-1.01,33.45-2.05
		c8.1-0.76,16.2-1.91,24.18-3.52c10.4-2.1,20.8-4.37,30.96-7.38c15.42-4.57,30.32-10.59,44.62-18c3.79-1.96,7.61-3.87,11.41-5.8
		c0.16,0.26,0.32,0.52,0.47,0.78c-0.35,0.41-0.62,0.98-1.07,1.2c-12.38,6.3-24.56,13.07-37.23,18.71
		c-16.91,7.52-34.68,12.57-52.83,16.31c-16.9,3.48-33.93,5.85-51.18,6.1c-10.28,0.15-20.58-0.2-30.85-0.72
		c-8.18-0.41-16.48-0.72-24.47-2.32c-15.05-3.01-30.04-6.5-44.84-10.55c-24.9-6.81-48.12-17.7-69.62-31.88
		c-11.87-7.83-22.92-16.95-34.01-25.9c-12.32-9.94-22.84-21.78-32.49-34.23c-7.37-9.5-13.69-19.83-20.22-29.96
		c-12.48-19.35-22.86-39.81-29.67-61.82c-4.13-13.34-7.61-26.99-9.98-40.75c-2.39-13.84-3.6-27.96-4.34-42.01
		c-0.73-14.01,0.77-28,2.62-41.95c1.99-15.01,5.35-29.65,9.95-44.02c1.99-6.2,4.39-12.27,6.61-18.4c-0.98,0.94-1.77,1.99-2.36,3.13
		c-9.42,18-15.57,37.02-19.09,57.07c-2.51,14.33-3.43,28.72-3.97,43.15c-0.3,8.1,0.59,16.27,1.36,24.37
		c0.98,10.36,1.84,20.77,3.72,30.99c3.76,20.43,9.62,40.29,17.58,59.54c6.76,16.34,14.89,31.89,24.51,46.71
		c7.5,11.55,15.31,22.85,24.96,32.72c9.6,9.82,18.79,20.17,29.31,28.91c11.24,9.33,23.61,17.38,35.87,25.39
		c16.8,10.98,35.1,19.03,54,25.69c20.76,7.31,41.96,12.88,63.92,15.12c10.38,1.06,20.77,2.53,31.17,2.68
		c12.99,0.19,26.02-0.38,38.97-1.41c11.06-0.88,22.17-2.22,33.02-4.49c17.55-3.67,34.78-8.57,51.49-15.37
		c19.64-7.98,38.27-17.6,55.84-29.47c18.98-12.82,35.93-27.82,51.2-44.86c10.41-11.61,19.64-24.02,27.94-37.22
		c14.19-22.55,25-46.58,31.6-72.34c3.57-13.94,5.97-28.2,8.23-42.43c1.25-7.84,1.08-15.9,1.63-23.85c0.09-1.31,0.58-2.59,0.88-3.88
		c1.08,1.65,1.76,3.26,1.72,4.85c-0.39,15.76-0.35,31.56-1.55,47.27c-0.82,10.81-2.8,21.62-5.28,32.19
		c-6.15,26.22-16.18,50.97-29.81,74.25c-15.36,26.22-34.04,49.89-54.96,71.84c-3.53,3.71-7.25,7.24-10.89,10.85
		c0.24,0.26,0.48,0.52,0.71,0.79c14.12-12.52,28.53-24.73,42.25-37.67c8.47-7.99,16.04-16.97,23.76-25.73
		c12.17-13.82,22.9-28.69,32.58-44.4c8-12.98,14.93-26.43,20.8-40.44c5.6-13.35,9.87-27.13,12.93-41.3
		c2.94-13.62,4.83-27.39,4.83-41.29c0-10.56-1.26-21.12-1.99-31.68c-0.19-2.72-0.49-5.44-0.74-8.16c0.47-0.27,0.94-0.55,1.41-0.82
		c3.59,3.9,7.03,7.95,10.79,11.67c5.1,5.05,8.96,7.14,12.18,7.73c-1.93-2.34-5.2-5.14-6.96-8.7c-2.54-5.14-4.22-10.76-5.85-16.3
		c-4.68-15.96-8.63-32.15-13.85-47.92c-5.87-17.73-15.75-33.49-27.62-47.8c-7.58-9.14-15.93-17.68-24.46-25.96
		c-6.48-6.29-13.65-11.89-20.76-17.51c-4.77-3.77-9.95-7.02-15.51-10.89c39.95-1.25,71.56-17.14,94.99-49.9
		c-3.63,3.03-6.69,5.66-9.84,8.2c-18.28,14.79-39.6,21.01-62.7,21.74c-12.28,0.39-24.57,0.25-36.75-2.03
		c-10.2-1.91-20.49-3.34-30.74-4.98c-0.11-0.41-0.23-0.83-0.34-1.24c25.21-5.98,44.81-20.19,61.17-40.8
		c-23.79,17.98-36.84,23.31-57.63,28.01c-16.23,3.67-56.54,2.11-63.64-2.66c9.53-9.92,19.05-19.84,29.02-30.23
		c-7.78,4.07-14.73,8.17-22.06,11.44c-20.22,9.01-41.22,13.63-63.63,11.73c-13.9-1.18-27.97-0.32-41.55,3.26
		c-12.21,3.21-24.22,7.22-36.21,11.23c-5.07,1.69-9.86,4.27-14.52,6.33c5.77,6.82,11.39,13.13,16.58,19.78
		c1.55,1.99,2.43,2.11,4.54,1.17c12.67-5.7,25.85-9.13,39.89-8.44c0.62,0.03,1.25-0.09,1.88-0.15c0.03-0.25,0.06-0.51,0.09-0.76
		c-8.09-2.53-16.18-5.07-24.27-7.6c0.02-0.46,0.03-0.91,0.05-1.37c13.08-1.74,26.12-4.06,39.25-5.04
		c9.72-0.73,19.64-0.34,29.36,0.67c12.3,1.28,24.6,3.11,36.67,5.76c16.34,3.59,31.76,9.85,46.26,18.36
		c13.26,7.78,25.25,17.15,34.61,29.31c5.5,7.15,9.8,15.27,14.19,23.21c5.02,9.08,7.35,19.13,8.95,29.3c0.72,4.6,0.85,9.3,1.3,14.55
		c-0.93-0.65-1.22-0.74-1.27-0.91c-4.24-13.97-9.67-27.36-17.46-39.83c-11.94-19.1-27.51-34.22-47.32-44.94
		c-14.74-7.98-30.57-12.84-46.98-15.74c-8.68-1.54-17.5-2.29-26.26-3.39c7.66,2.56,15.44,4.35,23.11,6.53
		c14.34,4.08,28.27,9.19,41,17.21c12.98,8.18,23.68,18.46,31.45,31.79c5.84,10.03,9.48,20.81,11.73,32.1
		c0.8,4.03,1.19,8.14,1.77,12.22c-0.47,0.13-0.94,0.26-1.41,0.4c-3.91-13.83-10.99-25.94-20.12-36.74
		c-9.16-10.84-20-19.72-33.91-25.96c0.7,1.11,0.86,1.55,1.16,1.81c8.11,7.17,14.82,15.53,21,24.38
		c11.08,15.87,18.9,33.28,24.11,51.85c3.85,13.69,6.32,27.68,6.65,41.92c0.22,9.55-0.09,19.13-0.72,28.66
		c-0.48,7.29-1.54,14.58-2.87,21.77c-2.52,13.74-6.75,27.05-12.45,39.77c-5.78,12.89-12.47,25.35-21.37,36.46
		c-3.12,3.89-6.34,7.7-9.51,11.55c-0.3-0.21-0.59-0.42-0.89-0.63c0.1-0.42,0.06-0.94,0.31-1.24c8.34-10.31,14.72-21.8,20-33.88
		c2.92-6.69,5.67-13.53,7.57-20.56c2.68-9.88,4.97-19.92,6.56-30.02c1.36-8.65,1.57-17.48,2.09-26.25c0.05-0.88-1.21-1.83-1.87-2.75
		c-0.88,0.64-2.15,1.1-2.56,1.97c-1.16,2.44-1.95,5.06-2.93,7.59c-2.06,5.32-4.15,10.63-6.23,15.95
		c-0.86-8.46-1.21-16.82-1.39-25.17c-0.05-2.24-0.63-3.2-3.05-3.24c-7.05-0.1-14.09-0.43-21.14-0.7c-0.88-0.03-1.76-0.2-2.64-0.31
		c-0.07-0.31-0.15-0.62-0.22-0.93c8.55-2.92,17.1-5.85,25.62-8.76c-2.48-9.21-4.83-17.91-7.17-26.61c0.26-0.16,0.52-0.32,0.78-0.48
		c3.83,5.06,7.65,10.13,11.6,15.36c1.32-1.77,2.35-3.15,3.47-4.67c-2.65-2.03-5.14-3.93-7.62-5.82c2.31-0.16,4.32,0.35,6.34,0.78
		c2.06,0.43,3.43,0.16,4.14-2.38c1.61-5.76-1.57-10.5-2.46-15.7c-0.79-0.06-1.26-0.11-1.73-0.13c-2.74-0.17-4.6-0.09-3.54,3.84
		c0.78,2.92,0.15,6.22,0.15,9.35c-0.33,0.05-0.66,0.1-0.99,0.15c-1.24-2.88-2.8-5.68-3.65-8.68c-0.91-3.18-2.48-3.53-5.19-2.37
		c-2.4,1.03-4.89,1.85-7.34,2.76c-0.15-0.27-0.3-0.54-0.45-0.81c2.87-2.6,5.75-5.2,8.68-7.86c-2.14-2.99-4.11-5.75-6.33-8.85
		c-3.99,5.96-7.83,11.69-11.67,17.42c1.27-9.25,3.04-18.2,5.15-27.08c0.49-2.07,0.3-2.65-1.76-3.15c-5.52-1.32-11-2.85-16.46-4.4
		c-2.83-0.8-5.6-1.82-8.4-2.75c0.07-0.28,0.15-0.56,0.22-0.84c9.13-0.93,18.26-1.86,27.6-2.81c0-4.68,0.12-9.23-0.07-13.76
		c-0.07-1.57-0.55-3.39-1.48-4.61c-3.23-4.26-6.36-8.7-10.21-12.35c-8.23-7.79-16.76-15.29-25.44-22.59
		c-3.83-3.22-8.31-5.67-12.49-8.46c4.97,7.17,10.32,13.78,15.3,20.65c4.94,6.8,9.5,13.87,14.23,20.82
		c-11.27-6.73-21.81-13.98-32.72-20.63c-7.17-4.37-14.83-7.95-22.36-11.68c-1.03-0.51-2.73-0.14-3.9,0.35
		c-0.37,0.16-0.17,2.06,0.04,3.12c0.28,1.38,0.84,2.69,1.25,4.04c1.16,3.83,2.31,7.67,3.47,11.5c-0.28,0.13-0.55,0.25-0.83,0.38
		c-3.94-4.8-7.88-9.6-12.01-14.63c-5.63,3.86-11.02,7.56-16.41,11.26c-0.16-0.17-0.32-0.35-0.48-0.52
		c3.56-5.58,7.11-11.15,10.69-16.78c-1.5-1.1-2.78-2.11-4.13-3.02c-4.47-2.99-8.03-7.42-13.87-8.25c-6.33-0.9-12.59-2.33-18.93-3.12
		c-5.02-0.62-10.13-0.62-14.99-0.88c1.92,13.52,11.59,20.39,21.87,26.89c-1.28,0.2-2.14-0.02-2.92-0.4
		c-3.84-1.89-7.77-3.62-11.44-5.8c-2.41-1.44-4.01-0.93-6.02,0.66c-4.01,3.15-8.39,5.85-12.31,9.1
		c-11.25,9.31-22.71,18.42-33.4,28.35c-7.66,7.12-14.8,14.98-21.14,23.3c-8.37,11-16.35,22.41-23.33,34.33
		c-6.62,11.3-11.92,23.4-17.44,35.32c-2.94,6.35-5.11,13.05-7.76,19.94C346.35,390.07,347.05,390.07,347.74,390.07z M494.14,368.13
		c2.15-0.66,3.84-1.05,5.43-1.7c4.23-1.73,7.29-0.17,9.85,3.2c3.94,5.19,8.02,10.27,11.88,15.52
		c13.59,18.49,21.62,38.74,19.19,62.16c-0.54,5.15-1.24,10.36-2.64,15.32c-2.35,8.36-5.32,16.54-8.06,24.89
		c8.92-12.02,15.9-25.01,20.27-39.43c4.92,22.82,2.68,45.16-3.27,67.5c4.38-7.15,8.44-14.42,12.04-21.91
		c6.66-13.87,9.14-28.78,9.98-43.97c0.27-4.97-0.22-10.01-0.68-14.98c-0.6-6.48-1-13.04-2.43-19.35
		c-2.83-12.53-6.71-24.74-11.58-36.7c-7.04-17.32-15.67-33.75-25.92-49.29c-8.68-13.15-18.04-25.86-27.19-38.7
		c-2.41-3.38-5.09-6.57-7.71-9.79c-2.51-3.09-5.11-6.11-8.17-9.76c0.5,1.61,0.61,2.45,0.99,3.13c8.86,15.82,16.71,32.09,21.49,49.65
		c1.47,5.39,4.3,10.71,0.5,16.58c-3,4.64-5.11,9.87-7.59,14.84C498.45,359.43,496.42,363.53,494.14,368.13z M468.27,553.56
		c15.44,7.09,30.54,14.02,45.64,20.95c0.1-0.19,0.2-0.38,0.3-0.57c-11.56-11.95-23.13-23.89-34.78-35.92
		c11.48-12.54,22.79-24.88,34.1-37.23c-0.14-0.12-0.27-0.25-0.41-0.37c-15.04,7.29-30.08,14.59-45.24,21.94
		c-8.34-14.84-16.54-29.44-24.74-44.04c0.47,6.51,1.44,12.85,2.33,19.21c1.29,9.24,2.18,18.56,3.96,27.7
		c0.69,3.57-0.9,3.86-3.18,4.3c-3.81,0.75-7.66,1.35-11.47,2.07c-7.77,1.47-15.53,2.95-23.28,4.48c-3.69,0.73-7.35,1.58-11.02,2.38
		c15.42,3.38,30.74,6.09,46.08,8.63c2.57,0.43,3.54,1.48,3.25,3.98c-0.53,4.47-0.93,8.95-1.49,13.41
		c-1.39,11.1-2.85,22.19-4.28,33.28c0.22,0.1,0.43,0.19,0.65,0.29C452.47,583.36,460.26,568.66,468.27,553.56z M358.77,296.38
		c-1.93,1.87-4.21,3.22-5.26,5.22c-6.63,12.57-12.98,25.29-19.45,37.95c-1.29,2.53-2.24,5.38-4.06,7.46
		c-4.89,5.56-10.23,10.72-15.25,16.16c-2.82,3.05-5.97,6.01-7.92,9.59c-4.48,8.19-8.31,16.73-12.38,25.15
		c-0.1,0.21,0.14,0.59,0.33,1.3c7.43-3.74,14.66-7.45,21.94-11.03c9.99-4.91,20.04-9.68,30.01-14.62c1.28-0.63,2.83-1.76,3.21-2.99
		c4.16-13.35,9.62-26.14,16.65-38.19c4.21-7.22,8.7-14.39,13.93-20.9c8.02-10,16.8-19.39,25.21-29.08c0.61-0.71,0.82-1.77,1.22-2.66
		c-0.41-0.36-0.82-0.73-1.23-1.09c-13.23,10.23-26.46,20.45-39.84,30.79c-1.4-2.17-2.73-3.99-3.79-5.95
		C360.94,301.43,360.07,299.24,358.77,296.38z M623.94,124.56c-46.15-27.39-95.67-41.14-149.29-40.23
		c-53.46,0.9-102.7,15.77-148.27,43.12C425.09,86.89,524.12,83.48,623.94,124.56z M337.21,188.74c0,4.39,0.37,7.9-0.07,11.3
		c-1.19,9.31-4.41,17.98-8.96,26.2c-0.5,0.91-0.06,2.98,0.7,3.83c2.05,2.28,4.51,4.2,6.82,6.26c4.84,4.32,9.69,8.64,15.07,13.43
		c3.05-5.77,6-10.99,8.61-16.37c3.65-7.52,4.82-15.71,5.83-23.91c0.3-2.42-0.56-3.93-2.75-5.18c-4.41-2.54-8.62-5.44-12.95-8.13
		C345.71,193.81,341.86,191.55,337.21,188.74z M237.97,302.14c-0.17,0.1-0.33,0.2-0.5,0.3c2.26,9.19,4.49,18.4,6.83,27.57
		c0.49,1.92-0.05,2.95-1.85,3.47c-6.92,1.99-13.84,3.94-20.75,5.97c-2.11,0.62-4.16,1.46-6.23,2.21c0.08,0.24,0.16,0.47,0.25,0.71
		c9.98,0.82,19.96,1.64,29.9,2.46c0,10.56,0,20.67,0,30.78c0.17,0.02,0.35,0.05,0.52,0.07c3.83-9.22,7.66-18.45,11.77-28.33
		c9.55,3.3,19.14,6.61,28.73,9.92c0.11-0.25,0.23-0.51,0.34-0.76c-7.62-6.56-15.23-13.11-22.97-19.78
		c6.26-8.28,12.21-16.15,18.16-24.01c-0.25-0.2-0.5-0.41-0.75-0.61c-7.47,4.58-14.96,9.14-22.4,13.77
		c-2.05,1.27-3.55,2.08-5.12-0.84c-1.67-3.1-4.01-5.83-6.04-8.74C244.55,311.59,241.26,306.86,237.97,302.14z M301.25,202.93
		c6.58,5.98,12.94,11.69,19.22,17.5c2.99,2.76,3.49,2.76,5.44-0.67c4.5-7.93,7.92-16.18,9.23-25.35c1.16-8.12,1.46-8.25-5.25-12.53
		c-0.8-0.51-1.57-1.07-2.38-1.57c-5.92-3.61-11.84-7.21-18.39-11.2C310.43,181.71,306.46,192.39,301.25,202.93z M297.52,202.02
		c6.46-9.36,8.91-19.47,10.01-29.98c0.09-0.85-0.83-2.15-1.64-2.69c-4.74-3.13-9.57-6.13-14.41-9.11c-2.97-1.83-6.01-3.54-9.73-5.73
		c1.05,9.95-1.59,18.32-5.13,26.54c-0.35,0.81,0.31,2.52,1.06,3.25c3.23,3.15,6.65,6.11,10.03,9.11
		C290.86,196.22,294.06,199,297.52,202.02z M273.36,177.8c4.49-7.61,6.47-15.45,7.51-23.52c0.15-1.15-0.75-2.98-1.74-3.65
		c-4.78-3.25-9.75-6.23-14.66-9.28c-2.42-1.5-4.86-2.94-6.64-4.01c-1.68,6.74-3.29,13.08-4.8,19.44c-0.23,0.97-0.39,2.51,0.15,3.03
		c3.91,3.81,7.97,7.47,12.05,11.11C267.87,173.26,270.61,175.47,273.36,177.8z M411.9,471.36c-0.17-0.03-0.34-0.05-0.5-0.08
		c-1.82,5.9-3.72,11.79-5.41,17.73c-0.54,1.9-1.05,2.41-3.2,1.83c-6.11-1.66-12.33-2.93-18.51-4.35c-0.07,0.18-0.14,0.37-0.22,0.55
		c5.76,4.09,11.51,8.17,17.48,12.41c-3.74,6.17-7.43,12.28-11.12,18.38c0.14,0.08,0.27,0.16,0.41,0.24
		c5.62-4.27,11.24-8.55,17.03-12.95c4.66,5.38,9.11,10.52,13.57,15.66c0.19-0.15,0.37-0.31,0.56-0.46
		c-2.18-6.42-4.37-12.84-6.58-19.35c6.66-2.83,13.1-5.55,19.53-8.28c-0.03-0.22-0.05-0.45-0.08-0.67c-7.09,0-14.17,0-21.26,0
		C413.01,484.83,412.45,478.09,411.9,471.36z M416.98,129.53c-0.57,0.05-1.15,0.11-1.72,0.16c-0.98,9.05-1.98,18.09-2.89,27.15
		c-0.06,0.62,0.38,1.38,0.79,1.94c4.89,6.67,9.8,13.33,14.79,19.92c0.48,0.64,1.85,1.38,2.34,1.13c4.58-2.28,9.06-4.77,13.67-7.26
		c-5.12-6.01-9.93-11.44-14.49-17.08c-3-3.71-6.31-7.11-7.38-12.26C421.11,138.51,418.74,134.08,416.98,129.53z M267.12,278.88
		c-0.1,0.21-0.2,0.41-0.3,0.62c5.04,3.75,10.08,7.5,15.23,11.32c-3.39,5.33-6.7,10.54-10,15.75c4.47-2.38,8.53-4.99,12.26-8.02
		c2.87-2.34,4.42-1.74,6.43,1.13c2.7,3.87,5.95,7.35,8.97,11c-0.63-3.85-1.7-7.3-2.83-10.73c-2.41-7.34-2.43-7.34,4.8-10.44
		c0.76-0.32,1.56-0.52,2.33-0.83c2.69-1.08,5.37-2.18,8.06-3.28c-0.09-0.27-0.17-0.55-0.26-0.82c-6.09,0-12.17,0-18.66,0
		c-0.39-6.27-0.77-12.3-1.14-18.33c-2.29,4.73-3.92,9.37-5.31,14.09c-0.77,2.62-1.82,3.33-4.63,2.41
		C277.18,281.16,272.11,280.14,267.12,278.88z M255.42,137.9c-8.38-5.14-15.82-9.7-23.46-14.38c-0.44,3.12-0.65,5.36-1.1,7.55
		c-0.61,2.97-2.56,6.25-1.79,8.75c0.78,2.55,4.1,4.35,6.38,6.41c4.51,4.09,9.05,8.13,13.58,12.19c0.44-0.04,0.88-0.08,1.33-0.12
		C252.03,151.52,253.71,144.75,255.42,137.9z M208.67,106.86c-0.16,1.63-0.08,2.85-0.43,3.94c-1.45,4.49-1.48,8.13,2.99,11.47
		c5.52,4.12,10.34,9.18,16.24,14.53c1.05-5.13,2.08-9.3,2.66-13.54c0.18-1.3-0.48-3.23-1.45-4.05c-2.14-1.81-4.71-3.11-7.12-4.58
		C217.34,112.06,213.12,109.53,208.67,106.86z M461.86,482.22c0.13,0.15,0.26,0.3,0.39,0.45c4.45-1.27,8.9-2.53,13.5-3.84
		c1.73,4.58,3.31,8.75,5.25,13.88c0.42-5.57,0.76-10.03,1.1-14.55c4.63-0.39,9.06-0.76,14.37-1.21c-5.1-1.94-9.45-3.6-13.74-5.24
		c1.32-4.6,2.57-8.97,3.82-13.35c-0.15-0.08-0.29-0.16-0.44-0.24c-2.86,3.58-5.72,7.16-8.78,10.98c-3.87-2.62-7.68-5.2-11.49-7.78
		c-0.16,0.16-0.32,0.33-0.48,0.49c2.53,3.87,5.07,7.74,7.62,11.63C469.08,476.53,465.47,479.37,461.86,482.22z M165.26,82.14
		c-0.16,0.23-0.31,0.46-0.47,0.69c13.14,11.81,26.27,23.61,39.99,35.95c0.53-2.91,0.97-5.16,1.35-7.42
		c0.47-2.81-0.62-4.54-3.19-6.01c-6.28-3.58-12.35-7.53-18.5-11.34C178.05,90.05,171.66,86.09,165.26,82.14z M389.04,288.99
		c-0.06-0.18-0.11-0.36-0.17-0.55c-2.73,1-5.54,1.85-8.18,3.05c-3.59,1.64-6.99,2.27-10.86,0.61c-2.83-1.21-6.01-1.6-9.25-2.41
		c-0.67,7,2.4,12.11,5.9,17.22C374.29,300.72,381.67,294.85,389.04,288.99z M249.66,268.73c3.05,0.67,5.97,1.32,8.9,1.96
		c0.02-0.22,0.03-0.43,0.05-0.65c-2.4-1.86-4.8-3.71-7.19-5.56c1.78-2.76,3.4-5.28,5.02-7.8c-2.29,0.7-4.04,2-5.84,3.22
		c-1.63,1.11-3.02,1.65-4.34-0.72c-1.05-1.88-2.79-3.38-4.22-5.05c-0.15,0.12-0.29,0.23-0.44,0.35c0.96,2.96,1.91,5.92,2.87,8.89
		c-3.22,1.34-6.19,2.56-9.15,3.79c0.08,0.31,0.17,0.62,0.25,0.93c3.16,0,6.32,0,9.39,0c0.26,3.2,0.5,6.03,0.73,8.87
		c0.29-0.02,0.58-0.03,0.86-0.05C247.59,274.19,248.62,271.47,249.66,268.73z M512.66,527.3c-0.06,0.24-0.11,0.49-0.17,0.73
		c2.58,1.36,5.16,2.72,7.88,4.16c-1.26,2.96-2.4,5.64-3.54,8.32c0.15,0.08,0.3,0.16,0.45,0.24c2.12-2.02,4.24-4.04,7.26-6.91
		c1.89,2.55,3.57,4.8,5.25,7.05c0.26-0.22,0.52-0.45,0.79-0.67c-1.18-2.51-2.36-5.01-3.66-7.79c2.57-1.6,4.98-3.1,7.39-4.6
		c-7,1.72-10.9-0.34-11.06-8c-0.6,2.76-1.2,5.52-1.82,8.41C518.27,527.9,515.46,527.6,512.66,527.3z M619.89,315.86
		c1.51-2.17,2.76-3.97,4.27-6.15c-2.81-1.72-5.55-3.5-8.41-5.05c-0.56-0.3-1.94,0.02-2.36,0.53c-1.2,1.46-2.11,3.16-3.18,4.85
		C613.71,312.15,616.78,313.99,619.89,315.86z M627.18,353.53c1.59,1.9,2.7,3.21,4.17,4.97c1.69-1.57,3.64-2.64,4.24-4.22
		c0.35-0.92-1.78-3.93-2.27-3.81C631.32,350.95,629.51,352.27,627.18,353.53z M626.92,314.26c-0.36,0-0.72-0.01-1.07-0.01
		c-0.13,1.41-0.34,2.82-0.27,4.21c0.01,0.18,1.49,0.28,2.69,0.49C627.71,317.03,627.32,315.65,626.92,314.26z"/>
	<linearGradient id="SVGID_3_" gradientUnits="userSpaceOnUse" x1="182.9714" y1="420.6553" x2="828.9525" y2="420.6553">
		<stop  offset="0" style="stop-color:#0F24ED"/>
		<stop  offset="1" style="stop-color:#000000"/>
	</linearGradient>
	<linearGradient id="SVGID_4_" gradientUnits="userSpaceOnUse" x1="182.4714" y1="420.6838" x2="830.2115" y2="420.6838">
		<stop  offset="0" style="stop-color:#FFFFFF"/>
		<stop  offset="1" style="stop-color:#000000"/>
	</linearGradient>
	<path class="st1" d="M375.41,404.92c-0.7,0-1.4,0-2.82,0c2.65-6.89,4.82-13.59,7.76-19.94c5.52-11.92,10.82-24.01,17.44-35.32
		c6.98-11.92,14.96-23.33,23.33-34.33c6.33-8.32,13.47-16.18,21.14-23.3c10.69-9.93,22.15-19.04,33.4-28.35
		c3.93-3.25,8.31-5.94,12.31-9.1c2.01-1.58,3.61-2.09,6.02-0.66c3.67,2.18,7.6,3.91,11.44,5.8c0.78,0.38,1.64,0.6,2.92,0.4
		c-10.28-6.49-19.95-13.37-21.87-26.89c4.86,0.26,9.96,0.26,14.99,0.88c6.34,0.78,12.6,2.21,18.93,3.12
		c5.83,0.83,9.4,5.26,13.87,8.25c1.35,0.91,2.63,1.92,4.13,3.02c-3.58,5.62-7.14,11.2-10.69,16.78c0.16,0.17,0.32,0.35,0.48,0.52
		c5.39-3.7,10.78-7.39,16.41-11.26c4.13,5.03,8.07,9.83,12.01,14.63c0.28-0.13,0.55-0.25,0.83-0.38c-1.16-3.83-2.3-7.67-3.47-11.5
		c-0.41-1.35-0.97-2.67-1.25-4.04c-0.21-1.05-0.41-2.96-0.04-3.12c1.17-0.49,2.87-0.86,3.9-0.35c7.54,3.74,15.2,7.31,22.36,11.68
		c10.91,6.65,21.45,13.91,32.72,20.63c-4.73-6.95-9.3-14.02-14.23-20.82c-4.99-6.87-10.34-13.48-15.3-20.65
		c4.18,2.8,8.66,5.24,12.49,8.46c8.68,7.3,17.21,14.8,25.44,22.59c3.85,3.65,6.98,8.09,10.21,12.35c0.93,1.22,1.41,3.04,1.48,4.61
		c0.19,4.54,0.07,9.08,0.07,13.76c-9.35,0.95-18.48,1.88-27.6,2.81c-0.07,0.28-0.15,0.56-0.22,0.84c2.8,0.92,5.57,1.94,8.4,2.75
		c5.46,1.55,10.94,3.08,16.46,4.4c2.06,0.49,2.25,1.08,1.76,3.15c-2.1,8.88-3.88,17.84-5.15,27.08c3.84-5.73,7.68-11.47,11.67-17.42
		c2.22,3.1,4.19,5.86,6.33,8.85c-2.94,2.66-5.81,5.26-8.68,7.86c0.15,0.27,0.3,0.54,0.45,0.81c2.45-0.91,4.94-1.73,7.34-2.76
		c2.7-1.16,4.28-0.81,5.19,2.37c0.85,3,2.41,5.79,3.65,8.68c0.33-0.05,0.66-0.1,0.99-0.15c0-3.13,0.63-6.43-0.15-9.35
		c-1.06-3.94,0.8-4.01,3.54-3.84c0.47,0.03,0.94,0.07,1.73,0.13c0.9,5.2,4.07,9.94,2.46,15.7c-0.71,2.54-2.08,2.81-4.14,2.38
		c-2.03-0.43-4.04-0.93-6.34-0.78c2.48,1.9,4.96,3.79,7.62,5.82c-1.13,1.51-2.15,2.89-3.47,4.67c-3.95-5.23-7.78-10.29-11.6-15.36
		c-0.26,0.16-0.52,0.32-0.78,0.48c2.34,8.7,4.69,17.4,7.17,26.61c-8.53,2.92-17.07,5.84-25.62,8.76c0.07,0.31,0.15,0.62,0.22,0.93
		c0.88,0.11,1.75,0.27,2.64,0.31c7.04,0.26,14.09,0.6,21.14,0.7c2.43,0.03,3.01,0.99,3.05,3.24c0.17,8.36,0.53,16.71,1.39,25.17
		c2.08-5.31,4.17-10.62,6.23-15.95c0.98-2.53,1.76-5.15,2.93-7.59c0.41-0.87,1.68-1.32,2.56-1.97c0.65,0.92,1.92,1.87,1.87,2.75
		c-0.53,8.76-0.73,17.6-2.09,26.25c-1.59,10.11-3.88,20.14-6.56,30.02c-1.91,7.02-4.65,13.87-7.57,20.56
		c-5.28,12.08-11.66,23.57-20,33.88c-0.24,0.3-0.21,0.82-0.31,1.24c0.3,0.21,0.59,0.42,0.89,0.63c3.17-3.85,6.39-7.66,9.51-11.55
		c8.9-11.11,15.6-23.57,21.37-36.46c5.7-12.72,9.92-26.03,12.45-39.77c1.32-7.19,2.38-14.48,2.87-21.77
		c0.63-9.53,0.94-19.12,0.72-28.66c-0.33-14.24-2.8-28.23-6.65-41.92c-5.21-18.57-13.03-35.97-24.11-51.85
		c-6.18-8.85-12.89-17.21-21-24.38c-0.3-0.27-0.46-0.7-1.16-1.81c13.91,6.24,24.75,15.12,33.91,25.96
		c9.13,10.8,16.21,22.91,20.12,36.74c0.47-0.13,0.94-0.26,1.41-0.4c-0.58-4.08-0.97-8.19-1.77-12.22
		c-2.25-11.29-5.88-22.07-11.73-32.1c-7.77-13.33-18.48-23.62-31.45-31.79c-12.73-8.03-26.65-13.13-41-17.21
		c-7.67-2.18-15.46-3.98-23.11-6.53c8.76,1.11,17.58,1.86,26.26,3.39c16.41,2.91,32.24,7.77,46.98,15.74
		c19.81,10.72,35.38,25.85,47.32,44.94c7.79,12.46,13.22,25.86,17.46,39.83c0.05,0.16,0.34,0.25,1.27,0.91
		c-0.45-5.24-0.57-9.94-1.3-14.55c-1.6-10.17-3.93-20.22-8.95-29.3c-4.39-7.94-8.69-16.06-14.19-23.21
		c-9.36-12.16-21.34-21.53-34.61-29.31c-14.5-8.51-29.92-14.77-46.26-18.36c-12.07-2.65-24.37-4.48-36.67-5.76
		c-9.72-1.01-19.63-1.4-29.36-0.67c-13.14,0.98-26.17,3.3-39.25,5.04c-0.02,0.46-0.03,0.91-0.05,1.37
		c8.09,2.53,16.18,5.07,24.27,7.6c-0.03,0.25-0.06,0.51-0.09,0.76c-0.63,0.05-1.26,0.18-1.88,0.15
		c-14.04-0.68-27.22,2.74-39.89,8.44c-2.1,0.95-2.99,0.82-4.54-1.17c-5.19-6.65-10.81-12.96-16.58-19.78
		c4.66-2.06,9.44-4.63,14.52-6.33c11.99-4,24-8.01,36.21-11.23c13.58-3.57,27.64-4.43,41.55-3.26c22.41,1.9,43.4-2.72,63.63-11.73
		c7.33-3.27,14.28-7.37,22.06-11.44c-9.97,10.38-19.49,20.3-29.02,30.23c7.1,4.77,47.41,6.32,63.64,2.66
		c20.79-4.7,33.84-10.03,57.63-28.01c-16.37,20.62-35.96,34.83-61.17,40.8c0.11,0.41,0.23,0.83,0.34,1.24
		c10.25,1.64,20.54,3.07,30.74,4.98c12.19,2.29,24.47,2.42,36.75,2.03c23.1-0.73,44.42-6.96,62.7-21.74
		c3.14-2.54,6.21-5.17,9.84-8.2c-23.43,32.76-55.03,48.65-94.99,49.9c5.56,3.88,10.74,7.12,15.51,10.89
		c7.1,5.61,14.28,11.22,20.76,17.51c8.53,8.28,16.89,16.82,24.46,25.96c11.86,14.31,21.74,30.07,27.62,47.8
		c5.22,15.77,9.17,31.96,13.85,47.92c1.63,5.54,3.31,11.16,5.85,16.3c1.75,3.55,5.03,6.36,6.96,8.7c-3.21-0.59-7.07-2.68-12.18-7.73
		c-3.76-3.72-7.21-7.77-10.79-11.67c-0.47,0.27-0.94,0.54-1.41,0.82c0.25,2.72,0.56,5.44,0.74,8.16
		c0.73,10.56,1.99,21.12,1.99,31.68c0,13.89-1.89,27.67-4.83,41.29c-3.06,14.17-7.33,27.95-12.93,41.3
		c-5.88,14.02-12.81,27.47-20.8,40.44c-9.68,15.7-20.4,30.58-32.58,44.4c-7.72,8.76-15.29,17.74-23.76,25.73
		c-13.72,12.94-28.13,25.15-42.25,37.67c-0.24-0.26-0.48-0.52-0.71-0.79c3.63-3.61,7.36-7.14,10.89-10.85
		c20.92-21.95,39.6-45.62,54.96-71.84c13.63-23.28,23.66-48.02,29.81-74.25c2.48-10.57,4.46-21.38,5.28-32.19
		c1.19-15.71,1.16-31.51,1.55-47.27c0.04-1.59-0.64-3.2-1.72-4.85c-0.3,1.29-0.79,2.57-0.88,3.88c-0.55,7.96-0.38,16.02-1.63,23.85
		c-2.26,14.22-4.66,28.49-8.23,42.43c-6.59,25.76-17.41,49.79-31.6,72.34c-8.3,13.2-17.53,25.6-27.94,37.22
		c-15.27,17.04-32.22,32.04-51.2,44.86c-17.57,11.87-36.2,21.49-55.84,29.47c-16.71,6.8-33.94,11.69-51.49,15.37
		c-10.85,2.27-21.96,3.62-33.02,4.49c-12.95,1.02-25.99,1.59-38.97,1.41c-10.4-0.15-20.79-1.63-31.17-2.68
		c-21.96-2.24-43.16-7.82-63.92-15.12c-18.89-6.65-37.2-14.71-54-25.69c-12.26-8.01-24.63-16.06-35.87-25.39
		c-10.52-8.73-19.71-19.09-29.31-28.91c-9.65-9.87-17.46-21.18-24.96-32.72c-9.62-14.82-17.75-30.36-24.51-46.71
		c-7.96-19.26-13.82-39.11-17.58-59.54c-1.88-10.21-2.74-20.63-3.72-30.99c-0.77-8.1-1.66-16.27-1.36-24.37
		c0.54-14.43,1.46-28.82,3.97-43.15c3.52-20.06,9.67-39.07,19.09-57.07c0.6-1.14,1.38-2.18,2.36-3.13
		c-2.22,6.13-4.62,12.2-6.61,18.4c-4.61,14.37-7.96,29.01-9.95,44.02c-1.85,13.95-3.36,27.94-2.62,41.95
		c0.73,14.05,1.95,28.16,4.34,42.01c2.38,13.75,5.86,27.4,9.98,40.75c6.81,22.01,17.19,42.47,29.67,61.82
		c6.53,10.13,12.86,20.46,20.22,29.96c9.65,12.45,20.17,24.29,32.49,34.23c11.09,8.95,22.14,18.08,34.01,25.9
		c21.49,14.17,44.72,25.07,69.62,31.88c14.8,4.05,29.79,7.54,44.84,10.55c8,1.6,16.29,1.91,24.47,2.32
		c10.27,0.52,20.57,0.87,30.85,0.72c17.25-0.25,34.28-2.62,51.18-6.1c18.15-3.74,35.92-8.79,52.83-16.31
		c12.68-5.64,24.85-12.41,37.23-18.71c0.45-0.23,0.72-0.79,1.07-1.2c-0.16-0.26-0.32-0.52-0.47-0.78c-3.8,1.93-7.62,3.84-11.41,5.8
		c-14.31,7.41-29.21,13.43-44.62,18c-10.16,3.01-20.56,5.28-30.96,7.38c-7.98,1.61-16.08,2.76-24.18,3.52
		c-11.12,1.04-22.31,2.18-33.45,2.05c-11.72-0.13-23.44-1.53-35.13-2.69c-22.69-2.24-44.53-8.14-65.93-15.79
		c-15.3-5.47-30.03-12.29-43.89-20.7c-10.8-6.55-21.24-13.77-31.38-21.3c-7.42-5.51-14.46-11.65-21.04-18.15
		c-7.27-7.19-14.14-14.86-20.61-22.78c-9.42-11.55-18.2-23.66-24.94-36.98c-6.61-13.06-12.84-26.34-18.47-39.84
		c-6.13-14.71-9.84-30.23-12.92-45.84c-1.53-7.75-2.53-15.67-3.02-23.55c-0.83-13.45-1.79-26.97-1.33-40.41
		c0.43-12.61,2.51-25.17,4.07-37.72c1.89-15.15,6.33-29.69,11.32-44.05c5.44-15.66,12.62-30.48,20.86-44.88
		c7.37-12.89,16.17-24.69,25.21-36.37c1.09-1.41,2.4-2.66,4.18-3.53c-3.53,5.41-7.23,10.73-10.57,16.25
		c-9.2,15.17-17.23,30.96-23,47.75c-3.74,10.88-7.12,21.95-9.73,33.14c-2.28,9.73-3.91,19.72-4.66,29.68
		c-1.09,14.39-1.7,28.86-1.41,43.28c0.22,10.84,2.07,21.65,3.38,32.45c1.82,15.04,5.91,29.55,10.81,43.83
		c9.01,26.27,21.75,50.67,38.77,72.58c8.31,10.7,17.64,20.71,27.29,30.24c13.34,13.16,28.68,23.86,44.93,33.21
		c0.56,0.32,1.22,0.49,2.18,0.42c-35.33-28.59-55.26-65.65-61.2-110.43c1.59,4.17,3.2,8.33,4.78,12.5
		c6.79,17.83,16.23,34.11,28.22,48.98c12.06,14.96,26.01,27.82,41.96,38.48c23.24,15.53,48.69,25.92,76.01,31.7
		c13.13,2.78,26.35,5.01,39.84,5.13c7.29,0.06,14.6,1,21.85,0.56c11.24-0.68,22.49-1.8,33.63-3.45
		c38.56-5.7,71.66-23.83,102.25-46.77c12.18-9.13,23.35-19.84,33.85-30.89c9.79-10.3,18.09-22.02,27.21-33.33
		c3.92,4.71,8.26,9.92,12.59,15.13c0.29-0.14,0.58-0.28,0.87-0.43c-2.61-8.23-5.23-16.47-7.84-24.71
		c8.51-3.37,16.49-6.52,24.46-9.67c-0.03-0.27-0.06-0.53-0.09-0.8c-6.1,0-12.2,0-18.63,0c2.86-7.22,6.05-13.73,8.01-20.59
		c3-10.52,5.53-21.21,7.57-31.96c2.76-14.6,2.59-29.46,2.15-44.24c-0.34-11.49-1.47-22.96-2.91-34.43
		c-0.37,12.6-0.31,25.23-1.22,37.79c-0.93,12.74-2.26,25.5-4.45,38.08c-2.16,12.38-5.62,24.53-11.9,35.69
		c2.34-28.78,5.71-57.48,3.29-86.41c-2.4-28.72-9.23-56.43-19.11-83.57c0.05,1.08-0.01,2.19,0.18,3.25
		c2.53,14.04,5.51,28.01,7.54,42.12c1.6,11.14,2.2,22.43,2.93,33.67c0.52,7.98,1.08,16.02,0.64,23.98
		c-0.66,11.82-1.57,23.69-3.54,35.35c-2.21,13.11-5.65,26.02-8.69,38.98c-0.62,2.63-1.86,5.1-2.78,7.66
		c-0.82,2.28-2.36,1.7-4.07,1.21c-4.65-1.33-9.33-2.54-14.01-3.73c-0.73-0.18-1.56,0.05-3.35,0.14c5.38,3.97,9.87,7.62,14.71,10.73
		c2.35,1.51,2.27,2.87,1.32,4.9c-7.28,15.53-15.93,30.17-26.83,43.51c-15.93,19.5-34.89,35.45-56.45,48.19
		c-20.52,12.13-42.33,21.51-65.38,27.84c-3.47,0.95-6.88,2.13-10.56,3.28c7.91-6.99,15.73-13.38,22.95-20.4
		c12.35-12,22.38-25.86,30.9-40.82c7.93-13.93,15.01-28.29,19.2-43.79c2.79-10.32,4.5-20.94,6.32-31.5
		c0.93-5.36,1.48-10.86,1.42-16.29c-0.13-12.93-1.58-25.73-4.16-38.45c-3.92-19.38-10.99-37.6-19.84-55.11
		c-10.37-20.52-22.74-39.86-37.36-57.66c-10.4-12.66-21.12-25.06-31.77-37.51c-3.99-4.66-8.18-9.16-12.28-13.73
		c-0.3,0.18-0.59,0.36-0.89,0.54c1.74,2.87,3.51,5.72,5.2,8.62c12.57,21.66,22.49,44.35,27.44,69.06c0.73,3.66,0.12,6.56-1.31,9.87
		c-5.08,11.69-9.87,23.51-14.64,35.33c-5.2,12.88-12.54,24.26-21.58,34.87c-5.46,6.4-12.15,7.39-19.25,7.76
		c-15.03,0.79-29.95,0.1-44.21-5.63c-11.15-4.48-21.52-10.25-30.83-17.89c-2.11-1.73-4.07-3.66-6.2-5.36
		c-0.77-0.61-1.9-1.25-2.79-1.16c-5.24,0.53-10.46,1.27-15.69,1.93L375.41,404.92z M445.66,388.25c0.15,0.21,0.29,0.41,0.44,0.62
		c7.78-5.59,15.56-11.18,23.44-16.85c6.18,7.52,12.06,14.68,18.31,22.29c0.12-1.1,0.27-1.48,0.18-1.78
		c-2.42-7.77-4.77-15.56-7.35-23.28c-0.75-2.24-0.24-3.3,1.89-4.03c2.71-0.93,5.38-1.99,8.05-3.04c5-1.96,9.98-3.96,14.97-5.94
		c-0.08-0.3-0.16-0.61-0.24-0.91c-9.19,0-18.38,0-27.66,0c-0.6-9.86-1.18-19.39-1.77-28.93c-0.25-0.03-0.5-0.06-0.76-0.09
		c-3.04,9.2-6.09,18.39-9.13,27.57c-9.23-2.43-18.1-4.77-26.97-7.11c0.83,1.56,1.92,2.45,3.06,3.28c5.52,4.02,11.07,8,16.57,12.04
		c1.3,0.96,2.97,1.92,1.61,3.98C455.43,373.46,450.54,380.85,445.66,388.25z M481.34,297.16c-0.47-5.07-0.88-9.5-1.3-13.92
		c-0.29-0.06-0.58-0.12-0.86-0.18c-1.18,3.6-2.77,7.12-3.4,10.81c-0.51,3.03-2.1,2.72-4,2.3c-3.6-0.79-7.17-1.73-10.75-2.6
		c-0.09,0.19-0.17,0.39-0.26,0.58c3.79,2.62,7.57,5.24,11.68,8.09c-2.52,4.4-4.93,8.6-7.34,12.8c0.15,0.13,0.31,0.26,0.46,0.39
		c3.83-2.94,7.67-5.88,11.64-8.93c3.32,3.73,6.47,7.27,9.63,10.81c-0.48-3.64-1.62-6.92-2.91-10.14c-1.09-2.73-1.1-4.62,2.38-5.62
		c2.89-0.83,5.56-2.4,8.33-3.64c-0.05-0.25-0.1-0.5-0.15-0.74C490.15,297.16,485.81,297.16,481.34,297.16z M413.57,366.86
		c-3.93,1.91-7.23,3.51-11.21,5.44c4.84,0,8.73,0,12.62,0c0.66,4.28,1.3,8.41,1.93,12.53c1.55-3.49,2.57-7,3.36-10.55
		c0.42-1.88,1.33-2.24,3.07-1.85c3.09,0.69,6.22,1.2,9.33,1.79c0.06-0.15,0.11-0.3,0.17-0.45c-3.41-2.22-6.81-4.44-10.17-6.62
		c1.92-3.74,3.68-7.15,5.44-10.57c-2.81,1.34-5.15,2.95-7.06,4.97c-1.82,1.93-3.09,2.13-4.9,0.05c-1.88-2.16-4.07-4.03-6.13-6.04
		c-0.2,0.16-0.39,0.31-0.59,0.47C410.81,359.64,412.19,363.24,413.57,366.86z M467.89,396.4c-0.12-0.38-0.24-0.76-0.36-1.14
		c-3.69,5.08-7.07,4.15-10.56,0.33c0.72,1.96,1.43,3.92,2.21,6.04c-1.89,1.09-3.67,2.11-6.19,3.56c1.89,0,2.9,0.22,3.76-0.04
		c2.84-0.84,3.99,0,3.85,3.05c-0.06,1.46,0.61,2.96,1.11,5.18c0.85-2.99,0.83-5.89,2.25-7.09c1.36-1.15,4.21-0.53,6.64-0.7
		c-1.83-1.23-3.55-2.39-5.34-3.58C466.21,400.01,467.05,398.2,467.89,396.4z M450.57,326.49c-5.13-1.94-4.51-5.26-2.6-9
		c-1.53,1.08-3.06,2.17-4.72,3.34c-1.48-1.38-2.96-2.76-4.45-4.15c-0.17,0.14-0.34,0.28-0.52,0.42c0.67,1.85,1.35,3.7,2.07,5.68
		c-1.55,0.96-3,1.86-4.47,2.77c0.22,0.29,0.26,0.43,0.33,0.44c0.35,0.07,0.72,0.21,1.05,0.15c3.34-0.59,5.05,0.51,4.6,4.16
		c-0.07,0.56,0.56,1.2,1.08,2.22C444.74,326.21,444.74,326.21,450.57,326.49z"/>
	<linearGradient id="SVGID_5_" gradientUnits="userSpaceOnUse" x1="295.3681" y1="447.6551" x2="472.7633" y2="447.6551">
		<stop  offset="0" style="stop-color:#0F24ED"/>
		<stop  offset="1" style="stop-color:#000000"/>
	</linearGradient>
	<linearGradient id="SVGID_6_" gradientUnits="userSpaceOnUse" x1="294.8681" y1="447.5448" x2="473.7585" y2="447.5448">
		<stop  offset="0" style="stop-color:#FFFFFF"/>
		<stop  offset="1" style="stop-color:#000000"/>
	</linearGradient>
	<path class="st2" d="M375.39,404.92c1.33,0.45,2.66,0.9,4.37,1.49c-9.24,6.07-16.86,13.25-23.71,21.24
		c0.24,0.3,0.49,0.61,0.73,0.91c2.99-2.32,5.87-4.78,8.97-6.93c7.4-5.12,14.91-10.08,22.34-15.15c2.04-1.4,3.59-0.81,5.41,0.57
		c8.56,6.52,17.06,13.15,25.91,19.26c3.89,2.69,8.57,4.23,13.44,6.56c-13.11,8.6-25.85,16.96-38.25,25.09
		c1.15-0.25,3.31-0.2,4.87-1.13c11.4-6.82,22.69-13.82,34-20.8c2.55-1.57,5-1.88,8.09-1.22c9.85,2.11,19.81,2.25,29.74,0.2
		c0.44-0.09,0.92,0.04,1.45,0.08c-4.14,5.12-65.58,42.44-75.78,46.05c-0.97-4.84,2.78-7.7,4.99-11.43
		c-4.24,1.52-6.87,5.45-8.46,11.74c-1.87,7.4-3.94,14.74-6.01,22.48c-9.69-0.59-19.15-1.17-29.3-1.78
		c2.19-4.39,4.03-8.46,6.19-12.34c2.87-5.17,5.88-10.27,9.05-15.25c2.7-4.24,2.84-4.15,8.4-5.53c-4.74-1.34-5.81-1.1-10.2,5.36
		c-6.24,9.18-12.02,18.66-18.12,27.94c-0.64,0.98-2.14,2.07-3.16,2c-7.31-0.52-14.61-1.29-21.9-2.08c-0.84-0.09-1.76-0.6-2.42-1.18
		c-7.78-6.86-13.63-14.67-14.45-25.64c-0.21-2.86-2.77-5.63-4.5-8.29c-3.4-5.25-7.12-10.3-10.39-15.64
		c-1.01-1.65-1.54-4.03-1.26-5.92c0.57-3.93,1.34-7.99,2.96-11.56c1.24-2.73,3.77-4.96,6.02-7.12c2.74-2.62,5.89-4.81,8.66-7.4
		c3.25-3.04,6.94-4.6,11.4-4.78c1.68-0.07,3.41-0.86,4.97-1.61c14.74-7.08,29.44-14.23,44.16-21.34c0.69-0.33,1.46-0.51,2.16-0.75
		c-0.82,8.84-6.89,13.36-13.33,17.82c-3.61,2.5-6.66,5.8-9.97,8.73c0.28,0.32,0.56,0.64,0.84,0.97c1.35-1.19,2.6-2.54,4.09-3.54
		c4.13-2.77,8.3-5.5,12.57-8.04c1.63-0.97,3.6-1.37,5.42-2.02C375.41,404.92,375.39,404.92,375.39,404.92z M306.24,437
		c4.2,7.39,4.21,14.73,1.77,22.22c-0.21,0.65,0.11,1.72,0.56,2.3c1.65,2.15,3.46,4.18,5.4,6.48c0.46-0.71,0.76-1.06,0.93-1.45
		c3.8-8.6,4.51-17.67,4.02-26.9c-0.04-0.72-0.95-1.94-1.55-2C313.9,437.29,310.39,437.2,306.24,437z M328.84,446.73
		c-1.66,4.78-2.93,9.56-4.97,13.98c-1.97,4.26-4.74,8.15-7.16,12.2c0.43,0.22,0.86,0.43,1.29,0.65
		C323.55,465.49,329.63,457.63,328.84,446.73z"/>
	<linearGradient id="SVGID_7_" gradientUnits="userSpaceOnUse" x1="382.1236" y1="227.9365" x2="489.3292" y2="227.9365">
		<stop  offset="0" style="stop-color:#0F24ED"/>
		<stop  offset="1" style="stop-color:#000000"/>
	</linearGradient>
	<linearGradient id="SVGID_8_" gradientUnits="userSpaceOnUse" x1="381.473" y1="227.9229" x2="489.9216" y2="227.9229">
		<stop  offset="0" style="stop-color:#FFFFFF"/>
		<stop  offset="1" style="stop-color:#000000"/>
	</linearGradient>
	<path class="st3" d="M407.79,302.68c-3.87-0.88-7.78-1.62-11.59-2.7c-3.38-0.96-6.65-2.3-10.08-3.51
		c-0.47,4.01-0.89,7.69-1.32,11.37c-0.54-0.03-1.07-0.07-1.61-0.1c-0.27-5.13-0.6-10.26-0.73-15.4c-0.02-0.64,0.93-1.59,1.64-1.9
		c1.28-0.55,2.71-0.82,4.11-1.05c7.05-1.16,11.93-6.02,17.29-10.06c5.4-4.07,10.76-8.21,16.12-12.33c0.36-0.27,0.58-0.73,0.43-1.83
		c-4.05,2.22-8.15,4.35-12.13,6.7c-3.46,2.04-6.71,4.42-10.19,6.41c-0.87,0.5-2.69,0.53-3.39-0.05c-4.75-3.95-9.32-8.12-14.22-12.47
		c8.8-13.85,13.93-28.68,12.42-46c4.28,2.56,7.9,4.7,11.49,6.89c5.06,3.1,10.17,6.12,15.09,9.42c1.86,1.25,2.69,0.77,3.58-0.86
		c1.52-2.79,3.07-5.56,4.78-8.66c5.47,5.14,10.74,10.09,15.99,15.05c2.25,2.13,8.81,4.09,12.26,3.28
		c-8.46-0.79-12.34-7.75-17.6-12.78c-3.27-3.13-6.79-6.24-9.12-10.02c-2.09-3.39-3-7.61-3.92-11.58
		c-3.3-14.28-5.06-28.76-4.36-43.43c0.3-6.31,1.24-12.58,1.89-18.87c0.33-0.05,0.66-0.11,0.99-0.16c1.42,3.17,3.53,6.22,4.12,9.53
		c1.55,8.67,6.61,15.17,11.77,21.82c10.75,13.84,21.47,27.71,31.75,41.9c6.65,9.19,12.17,19.14,16.07,30.33
		c-3.47,2.61-6.97,5.41-10.63,7.97c-11.41,8-22.9,15.88-34.31,23.87c-6.87,4.81-13.43,10.13-20.57,14.48
		c-3.38,2.05-7.81,2.36-11.77,3.47c-1.43,0.4-2.84,0.85-4.27,1.27C407.78,302.68,407.79,302.68,407.79,302.68z"/>
	<linearGradient id="SVGID_9_" gradientUnits="userSpaceOnUse" x1="512.7695" y1="408.2144" x2="596.5331" y2="408.2144">
		<stop  offset="0" style="stop-color:#0F24ED"/>
		<stop  offset="1" style="stop-color:#000000"/>
	</linearGradient>
	<linearGradient id="SVGID_10_" gradientUnits="userSpaceOnUse" x1="512.2917" y1="408.1844" x2="597.0331" y2="408.1844">
		<stop  offset="0" style="stop-color:#FFFFFF"/>
		<stop  offset="1" style="stop-color:#000000"/>
	</linearGradient>
	<path class="st4" d="M521.8,382.98c2.28-4.6,4.31-8.71,6.35-12.8c2.49-4.97,4.59-10.2,7.59-14.84c3.8-5.87,0.97-11.19-0.5-16.58
		c-4.79-17.56-12.64-33.83-21.49-49.65c-0.38-0.68-0.49-1.52-0.99-3.13c3.06,3.65,5.66,6.67,8.17,9.76
		c2.62,3.22,5.31,6.41,7.71,9.79c9.15,12.84,18.51,25.54,27.19,38.7c10.25,15.54,18.88,31.97,25.92,49.29
		c4.87,11.96,8.75,24.17,11.58,36.7c1.43,6.31,1.83,12.88,2.43,19.35c0.46,4.98,0.95,10.01,0.68,14.98
		c-0.84,15.19-3.32,30.11-9.98,43.97c-3.6,7.49-7.65,14.76-12.04,21.91c5.95-22.34,8.19-44.68,3.27-67.5
		c-4.37,14.42-11.35,27.41-20.27,39.43c2.74-8.36,5.71-16.54,8.06-24.89c1.4-4.96,2.1-10.17,2.64-15.32
		c2.44-23.41-5.6-43.67-19.19-62.16c-3.86-5.25-7.94-10.33-11.88-15.52c-2.56-3.37-5.62-4.93-9.85-3.2
		C525.64,381.94,523.95,382.32,521.8,382.98z"/>
	<linearGradient id="SVGID_11_" gradientUnits="userSpaceOnUse" x1="428.1308" y1="553.0382" x2="541.8701" y2="553.0382">
		<stop  offset="0" style="stop-color:#0F24ED"/>
		<stop  offset="1" style="stop-color:#000000"/>
	</linearGradient>
	<linearGradient id="SVGID_12_" gradientUnits="userSpaceOnUse" x1="428.0239" y1="553.2382" x2="542.4827" y2="553.2382">
		<stop  offset="0" style="stop-color:#FFFFFF"/>
		<stop  offset="1" style="stop-color:#000000"/>
	</linearGradient>
	<path class="st5" d="M495.93,568.41c-8.01,15.1-15.8,29.8-23.59,44.5c-0.22-0.1-0.43-0.19-0.65-0.29
		c1.43-11.09,2.88-22.18,4.28-33.28c0.56-4.46,0.96-8.94,1.49-13.41c0.3-2.5-0.68-3.56-3.25-3.98c-15.34-2.54-30.66-5.26-46.08-8.63
		c3.67-0.8,7.33-1.65,11.02-2.38c7.75-1.53,15.52-3.01,23.28-4.48c3.82-0.72,7.66-1.32,11.47-2.07c2.28-0.45,3.88-0.74,3.18-4.3
		c-1.78-9.14-2.67-18.46-3.96-27.7c-0.89-6.35-1.86-12.69-2.33-19.21c8.2,14.6,16.41,29.2,24.74,44.04
		c15.16-7.35,30.2-14.65,45.24-21.94c0.14,0.12,0.27,0.25,0.41,0.37c-11.31,12.35-22.61,24.69-34.1,37.23
		c11.65,12.03,23.21,23.98,34.78,35.92c-0.1,0.19-0.2,0.38-0.3,0.57C526.47,582.43,511.37,575.5,495.93,568.41z"/>
	<linearGradient id="SVGID_13_" gradientUnits="userSpaceOnUse" x1="322.0788" y1="353.7792" x2="434.5891" y2="353.7792">
		<stop  offset="0" style="stop-color:#0F24ED"/>
		<stop  offset="1" style="stop-color:#000000"/>
	</linearGradient>
	<linearGradient id="SVGID_14_" gradientUnits="userSpaceOnUse" x1="321.5788" y1="353.8167" x2="435.1945" y2="353.8167">
		<stop  offset="0" style="stop-color:#FFFFFF"/>
		<stop  offset="1" style="stop-color:#000000"/>
	</linearGradient>
	<path class="st6" d="M386.43,311.23c1.31,2.86,2.18,5.05,3.29,7.11c1.07,1.96,2.39,3.77,3.79,5.95
		c13.37-10.34,26.61-20.56,39.84-30.79c0.41,0.36,0.82,0.73,1.23,1.09c-0.4,0.9-0.6,1.96-1.22,2.66
		c-8.41,9.69-17.18,19.09-25.21,29.08c-5.22,6.51-9.71,13.68-13.93,20.9c-7.03,12.05-12.49,24.84-16.65,38.19
		c-0.38,1.22-1.93,2.35-3.21,2.99c-9.97,4.94-20.02,9.71-30.01,14.62c-7.29,3.58-14.51,7.29-21.94,11.03
		c-0.19-0.71-0.43-1.09-0.33-1.3c4.07-8.41,7.9-16.96,12.38-25.15c1.95-3.57,5.11-6.54,7.92-9.59c5.03-5.44,10.37-10.6,15.25-16.16
		c1.82-2.07,2.77-4.93,4.06-7.46c6.46-12.66,12.82-25.38,19.45-37.95C382.22,314.46,384.5,313.1,386.43,311.23z"/>
	<linearGradient id="SVGID_15_" gradientUnits="userSpaceOnUse" x1="354.0385" y1="120.7271" x2="651.5989" y2="120.7271">
		<stop  offset="0" style="stop-color:#0F24ED"/>
		<stop  offset="1" style="stop-color:#000000"/>
	</linearGradient>
	<linearGradient id="SVGID_16_" gradientUnits="userSpaceOnUse" x1="353.7813" y1="120.7083" x2="651.8541" y2="120.7083">
		<stop  offset="0" style="stop-color:#FFFFFF"/>
		<stop  offset="1" style="stop-color:#000000"/>
	</linearGradient>
	<path class="st7" d="M651.6,139.42c-99.81-41.09-198.85-37.67-297.56,2.89c45.57-27.35,94.81-42.22,148.27-43.12
		C555.93,98.28,605.45,112.03,651.6,139.42z"/>
	<linearGradient id="SVGID_17_" gradientUnits="userSpaceOnUse" x1="355.6257" y1="234.1042" x2="392.921" y2="234.1042">
		<stop  offset="0" style="stop-color:#0F24ED"/>
		<stop  offset="1" style="stop-color:#000000"/>
	</linearGradient>
	<linearGradient id="SVGID_18_" gradientUnits="userSpaceOnUse" x1="355.1257" y1="234.0604" x2="393.421" y2="234.0604">
		<stop  offset="0" style="stop-color:#FFFFFF"/>
		<stop  offset="1" style="stop-color:#000000"/>
	</linearGradient>
	<path class="st8" d="M364.87,203.59c4.66,2.81,8.51,5.08,12.3,7.43c4.33,2.69,8.53,5.6,12.95,8.13c2.19,1.26,3.04,2.77,2.75,5.18
		c-1,8.2-2.17,16.38-5.83,23.91c-2.61,5.38-5.56,10.6-8.61,16.37c-5.38-4.79-10.22-9.11-15.07-13.43c-2.3-2.06-4.77-3.97-6.82-6.26
		c-0.76-0.85-1.2-2.92-0.7-3.83c4.55-8.22,7.77-16.89,8.96-26.2C365.23,211.49,364.87,207.98,364.87,203.59z"/>
	<linearGradient id="SVGID_19_" gradientUnits="userSpaceOnUse" x1="243.1329" y1="353.7664" x2="314.6392" y2="353.7664">
		<stop  offset="0" style="stop-color:#0F24ED"/>
		<stop  offset="1" style="stop-color:#000000"/>
	</linearGradient>
	<linearGradient id="SVGID_20_" gradientUnits="userSpaceOnUse" x1="242.4977" y1="353.7056" x2="315.249" y2="353.7056">
		<stop  offset="0" style="stop-color:#FFFFFF"/>
		<stop  offset="1" style="stop-color:#000000"/>
	</linearGradient>
	<path class="st9" d="M265.63,316.99c3.29,4.72,6.58,9.45,9.88,14.17c2.03,2.91,4.37,5.64,6.04,8.74c1.58,2.92,3.08,2.12,5.12,0.84
		c7.44-4.63,14.93-9.19,22.4-13.77c0.25,0.2,0.5,0.41,0.75,0.61c-5.95,7.87-11.9,15.73-18.16,24.01
		c7.74,6.66,15.36,13.22,22.97,19.78c-0.11,0.25-0.23,0.51-0.34,0.76c-9.59-3.31-19.19-6.62-28.73-9.92
		c-4.1,9.88-7.94,19.11-11.77,28.33c-0.17-0.02-0.35-0.05-0.52-0.07c0-10.11,0-20.22,0-30.78c-9.93-0.82-19.91-1.64-29.9-2.46
		c-0.08-0.24-0.16-0.47-0.25-0.71c2.08-0.74,4.12-1.58,6.23-2.21c6.9-2.03,13.83-3.98,20.75-5.97c1.8-0.52,2.34-1.55,1.85-3.47
		c-2.34-9.17-4.56-18.38-6.83-27.57C265.3,317.19,265.47,317.09,265.63,316.99z"/>
	<linearGradient id="SVGID_21_" gradientUnits="userSpaceOnUse" x1="328.9087" y1="210.6247" x2="363.4484" y2="210.6247">
		<stop  offset="0" style="stop-color:#0F24ED"/>
		<stop  offset="1" style="stop-color:#000000"/>
	</linearGradient>
	<linearGradient id="SVGID_22_" gradientUnits="userSpaceOnUse" x1="328.2932" y1="210.3991" x2="363.9484" y2="210.3991">
		<stop  offset="0" style="stop-color:#FFFFFF"/>
		<stop  offset="1" style="stop-color:#000000"/>
	</linearGradient>
	<path class="st10" d="M328.91,217.78c5.21-10.54,9.19-21.22,7.88-33.81c6.54,3.98,12.47,7.59,18.39,11.2
		c0.81,0.49,1.58,1.06,2.38,1.57c6.7,4.28,6.41,4.42,5.25,12.53c-1.31,9.17-4.73,17.42-9.23,25.35c-1.95,3.43-2.46,3.43-5.44,0.67
		C341.85,229.48,335.49,223.76,328.91,217.78z"/>
	<linearGradient id="SVGID_23_" gradientUnits="userSpaceOnUse" x1="304.1751" y1="193.12" x2="335.1931" y2="193.12">
		<stop  offset="0" style="stop-color:#0F24ED"/>
		<stop  offset="1" style="stop-color:#000000"/>
	</linearGradient>
	<linearGradient id="SVGID_24_" gradientUnits="userSpaceOnUse" x1="303.6751" y1="193.027" x2="335.6931" y2="193.027">
		<stop  offset="0" style="stop-color:#FFFFFF"/>
		<stop  offset="1" style="stop-color:#000000"/>
	</linearGradient>
	<path class="st11" d="M325.18,216.88c-3.45-3.03-6.65-5.81-9.82-8.62c-3.38-3-6.8-5.96-10.03-9.11c-0.74-0.73-1.41-2.44-1.06-3.25
		c3.54-8.21,6.18-16.58,5.13-26.54c3.72,2.18,6.76,3.9,9.73,5.73c4.84,2.98,9.67,5.98,14.41,9.11c0.82,0.54,1.73,1.84,1.64,2.69
		C334.08,197.41,331.63,207.52,325.18,216.88z"/>
	<linearGradient id="SVGID_25_" gradientUnits="userSpaceOnUse" x1="280.4796" y1="172.417" x2="308.5527" y2="172.417">
		<stop  offset="0" style="stop-color:#0F24ED"/>
		<stop  offset="1" style="stop-color:#000000"/>
	</linearGradient>
	<linearGradient id="SVGID_26_" gradientUnits="userSpaceOnUse" x1="279.9796" y1="172.4098" x2="309.0527" y2="172.4098">
		<stop  offset="0" style="stop-color:#FFFFFF"/>
		<stop  offset="1" style="stop-color:#000000"/>
	</linearGradient>
	<path class="st12" d="M301.03,192.65c-2.75-2.32-5.5-4.54-8.13-6.88c-4.08-3.63-8.14-7.29-12.05-11.11
		c-0.54-0.53-0.38-2.06-0.15-3.03c1.51-6.37,3.12-12.71,4.8-19.44c1.77,1.07,4.22,2.52,6.64,4.01c4.92,3.05,9.88,6.03,14.66,9.28
		c0.99,0.67,1.89,2.5,1.74,3.65C307.49,177.2,305.51,185.04,301.03,192.65z"/>
	<linearGradient id="SVGID_27_" gradientUnits="userSpaceOnUse" x1="411.7194" y1="510.8789" x2="462.5934" y2="510.8789">
		<stop  offset="0" style="stop-color:#0F24ED"/>
		<stop  offset="1" style="stop-color:#000000"/>
	</linearGradient>
	<linearGradient id="SVGID_28_" gradientUnits="userSpaceOnUse" x1="411.11" y1="510.9461" x2="463.1335" y2="510.9461">
		<stop  offset="0" style="stop-color:#FFFFFF"/>
		<stop  offset="1" style="stop-color:#000000"/>
	</linearGradient>
	<path class="st13" d="M439.56,486.21c0.55,6.73,1.1,13.47,1.69,20.66c7.08,0,14.17,0,21.26,0c0.03,0.22,0.05,0.45,0.08,0.67
		c-6.43,2.73-12.87,5.45-19.53,8.28c2.21,6.5,4.4,12.93,6.58,19.35c-0.19,0.15-0.37,0.31-0.56,0.46
		c-4.45-5.14-8.91-10.28-13.57-15.66c-5.79,4.4-11.41,8.68-17.03,12.95c-0.14-0.08-0.27-0.16-0.41-0.24
		c3.69-6.1,7.39-12.21,11.12-18.38c-5.97-4.24-11.72-8.32-17.48-12.41c0.07-0.18,0.14-0.37,0.22-0.55
		c6.18,1.42,12.4,2.69,18.51,4.35c2.14,0.58,2.65,0.07,3.2-1.83c1.7-5.94,3.59-11.82,5.41-17.73
		C439.23,486.16,439.4,486.19,439.56,486.21z"/>
	<linearGradient id="SVGID_29_" gradientUnits="userSpaceOnUse" x1="440.0273" y1="169.5523" x2="471.6191" y2="169.5523">
		<stop  offset="0" style="stop-color:#0F24ED"/>
		<stop  offset="1" style="stop-color:#000000"/>
	</linearGradient>
	<linearGradient id="SVGID_30_" gradientUnits="userSpaceOnUse" x1="439.5273" y1="169.5359" x2="472.4009" y2="169.5359">
		<stop  offset="0" style="stop-color:#FFFFFF"/>
		<stop  offset="1" style="stop-color:#000000"/>
	</linearGradient>
	<path class="st14" d="M444.64,144.38c1.76,4.55,4.13,8.98,5.11,13.69c1.07,5.15,4.38,8.55,7.38,12.26
		c4.56,5.64,9.37,11.07,14.49,17.08c-4.61,2.49-9.09,4.97-13.67,7.26c-0.49,0.24-1.85-0.49-2.34-1.13
		c-4.99-6.59-9.89-13.25-14.79-19.92c-0.41-0.55-0.85-1.32-0.79-1.94c0.92-9.05,1.91-18.1,2.89-27.15
		C443.5,144.49,444.07,144.43,444.64,144.38z"/>
	<linearGradient id="SVGID_31_" gradientUnits="userSpaceOnUse" x1="294.4828" y1="303.32" x2="339.7105" y2="303.32">
		<stop  offset="0" style="stop-color:#0F24ED"/>
		<stop  offset="1" style="stop-color:#000000"/>
	</linearGradient>
	<linearGradient id="SVGID_32_" gradientUnits="userSpaceOnUse" x1="293.8507" y1="303.2257" x2="340.3241" y2="303.2257">
		<stop  offset="0" style="stop-color:#FFFFFF"/>
		<stop  offset="1" style="stop-color:#000000"/>
	</linearGradient>
	<path class="st15" d="M294.79,293.74c4.99,1.26,10.05,2.27,14.93,3.87c2.82,0.92,3.86,0.21,4.63-2.41
		c1.39-4.72,3.02-9.37,5.31-14.09c0.38,6.03,0.75,12.06,1.14,18.33c6.49,0,12.57,0,18.66,0c0.09,0.27,0.17,0.55,0.26,0.82
		c-2.69,1.09-5.37,2.2-8.06,3.28c-0.76,0.31-1.57,0.51-2.33,0.83c-7.23,3.1-7.21,3.1-4.8,10.44c1.13,3.43,2.2,6.89,2.83,10.73
		c-3.01-3.65-6.27-7.13-8.97-11c-2-2.87-3.55-3.47-6.43-1.13c-3.73,3.03-7.79,5.64-12.26,8.02c3.31-5.21,6.62-10.42,10-15.75
		c-5.15-3.83-10.19-7.57-15.23-11.32C294.58,294.15,294.68,293.94,294.79,293.74z"/>
	<linearGradient id="SVGID_33_" gradientUnits="userSpaceOnUse" x1="256.5479" y1="155.8131" x2="283.0804" y2="155.8131">
		<stop  offset="0" style="stop-color:#0F24ED"/>
		<stop  offset="1" style="stop-color:#000000"/>
	</linearGradient>
	<linearGradient id="SVGID_34_" gradientUnits="userSpaceOnUse" x1="256.0479" y1="155.6601" x2="283.6541" y2="155.6601">
		<stop  offset="0" style="stop-color:#FFFFFF"/>
		<stop  offset="1" style="stop-color:#000000"/>
	</linearGradient>
	<path class="st16" d="M283.08,152.75c-1.71,6.85-3.39,13.62-5.07,20.38c-0.44,0.04-0.88,0.08-1.33,0.12
		c-4.53-4.06-9.08-8.1-13.58-12.19c-2.27-2.06-5.6-3.86-6.38-6.41c-0.76-2.5,1.18-5.78,1.79-8.75c0.45-2.19,0.66-4.43,1.1-7.55
		C267.26,143.05,274.7,147.62,283.08,152.75z"/>
	<linearGradient id="SVGID_35_" gradientUnits="userSpaceOnUse" x1="235.0322" y1="136.675" x2="257.8175" y2="136.675">
		<stop  offset="0" style="stop-color:#0F24ED"/>
		<stop  offset="1" style="stop-color:#000000"/>
	</linearGradient>
	<linearGradient id="SVGID_36_" gradientUnits="userSpaceOnUse" x1="234.5322" y1="136.7374" x2="258.3175" y2="136.7374">
		<stop  offset="0" style="stop-color:#FFFFFF"/>
		<stop  offset="1" style="stop-color:#000000"/>
	</linearGradient>
	<path class="st17" d="M236.34,121.71c4.44,2.68,8.67,5.21,12.88,7.76c2.42,1.47,4.98,2.77,7.12,4.58c0.97,0.82,1.63,2.76,1.45,4.05
		c-0.58,4.23-1.61,8.41-2.66,13.54c-5.89-5.35-10.72-10.4-16.24-14.53c-4.47-3.34-4.44-6.98-2.99-11.47
		C236.25,124.56,236.17,123.34,236.34,121.71z"/>
	<linearGradient id="SVGID_37_" gradientUnits="userSpaceOnUse" x1="489.5208" y1="490.2641" x2="524.1458" y2="490.2641">
		<stop  offset="0" style="stop-color:#0F24ED"/>
		<stop  offset="1" style="stop-color:#000000"/>
	</linearGradient>
	<linearGradient id="SVGID_38_" gradientUnits="userSpaceOnUse" x1="488.7997" y1="490.0309" x2="524.3238" y2="490.0309">
		<stop  offset="0" style="stop-color:#FFFFFF"/>
		<stop  offset="1" style="stop-color:#000000"/>
	</linearGradient>
	<path class="st18" d="M489.52,497.07c3.61-2.84,7.22-5.69,11.14-8.77c-2.55-3.89-5.08-7.76-7.62-11.63
		c0.16-0.16,0.32-0.33,0.48-0.49c3.81,2.58,7.62,5.16,11.49,7.78c3.05-3.82,5.92-7.4,8.78-10.98c0.15,0.08,0.29,0.16,0.44,0.24
		c-1.25,4.37-2.5,8.75-3.82,13.35c4.29,1.63,8.64,3.29,13.74,5.24c-5.31,0.45-9.74,0.82-14.37,1.21c-0.34,4.52-0.68,8.98-1.1,14.55
		c-1.94-5.13-3.52-9.3-5.25-13.88c-4.6,1.31-9.05,2.58-13.5,3.84C489.78,497.37,489.65,497.22,489.52,497.07z"/>
	<linearGradient id="SVGID_39_" gradientUnits="userSpaceOnUse" x1="192.4486" y1="115.306" x2="233.9011" y2="115.306">
		<stop  offset="0" style="stop-color:#0F24ED"/>
		<stop  offset="1" style="stop-color:#000000"/>
	</linearGradient>
	<linearGradient id="SVGID_40_" gradientUnits="userSpaceOnUse" x1="191.7888" y1="115.4524" x2="234.4011" y2="115.4524">
		<stop  offset="0" style="stop-color:#FFFFFF"/>
		<stop  offset="1" style="stop-color:#000000"/>
	</linearGradient>
	<path class="st19" d="M192.92,96.99c6.4,3.96,12.79,7.92,19.19,11.87c6.15,3.8,12.22,7.76,18.5,11.34c2.57,1.47,3.66,3.2,3.19,6.01
		c-0.38,2.26-0.82,4.51-1.35,7.42c-13.72-12.33-26.86-24.14-39.99-35.95C192.61,97.45,192.76,97.22,192.92,96.99z"/>
	<linearGradient id="SVGID_41_" gradientUnits="userSpaceOnUse" x1="388.1659" y1="312.5296" x2="416.7056" y2="312.5296">
		<stop  offset="0" style="stop-color:#0F24ED"/>
		<stop  offset="1" style="stop-color:#000000"/>
	</linearGradient>
	<linearGradient id="SVGID_42_" gradientUnits="userSpaceOnUse" x1="387.6659" y1="312.5668" x2="417.2842" y2="312.5668">
		<stop  offset="0" style="stop-color:#FFFFFF"/>
		<stop  offset="1" style="stop-color:#000000"/>
	</linearGradient>
	<path class="st20" d="M416.71,303.84c-7.38,5.86-14.75,11.73-22.55,17.92c-3.5-5.11-6.57-10.22-5.9-17.22
		c3.24,0.81,6.42,1.19,9.25,2.41c3.87,1.66,7.27,1.03,10.86-0.61c2.64-1.21,5.44-2.05,8.18-3.05
		C416.59,303.48,416.65,303.66,416.71,303.84z"/>
	<linearGradient id="SVGID_43_" gradientUnits="userSpaceOnUse" x1="262.9895" y1="280.395" x2="286.2708" y2="280.395">
		<stop  offset="0" style="stop-color:#0F24ED"/>
		<stop  offset="1" style="stop-color:#000000"/>
	</linearGradient>
	<linearGradient id="SVGID_44_" gradientUnits="userSpaceOnUse" x1="262.3922" y1="280.3134" x2="286.7906" y2="280.3134">
		<stop  offset="0" style="stop-color:#FFFFFF"/>
		<stop  offset="1" style="stop-color:#000000"/>
	</linearGradient>
	<path class="st21" d="M277.32,283.58c-1.04,2.74-2.07,5.46-3.09,8.18c-0.29,0.02-0.58,0.03-0.86,0.05
		c-0.23-2.83-0.47-5.67-0.73-8.87c-3.07,0-6.23,0-9.39,0c-0.08-0.31-0.17-0.62-0.25-0.93c2.96-1.23,5.92-2.45,9.15-3.79
		c-0.96-2.97-1.92-5.93-2.87-8.89c0.15-0.12,0.29-0.23,0.44-0.35c1.43,1.67,3.16,3.17,4.22,5.05c1.33,2.37,2.71,1.83,4.34,0.72
		c1.8-1.22,3.55-2.52,5.84-3.22c-1.62,2.52-3.24,5.04-5.02,7.8c2.39,1.85,4.79,3.7,7.19,5.56c-0.02,0.22-0.03,0.43-0.05,0.65
		C283.29,284.9,280.36,284.25,277.32,283.58z"/>
	<linearGradient id="SVGID_45_" gradientUnits="userSpaceOnUse" x1="540.1535" y1="545.2015" x2="561.9586" y2="545.2015">
		<stop  offset="0" style="stop-color:#0F24ED"/>
		<stop  offset="1" style="stop-color:#000000"/>
	</linearGradient>
	<linearGradient id="SVGID_46_" gradientUnits="userSpaceOnUse" x1="539.5802" y1="545.5118" x2="562.2229" y2="545.5118">
		<stop  offset="0" style="stop-color:#FFFFFF"/>
		<stop  offset="1" style="stop-color:#000000"/>
	</linearGradient>
	<path class="st22" d="M540.32,542.16c2.8,0.3,5.61,0.59,8.75,0.92c0.63-2.9,1.23-5.65,1.82-8.41c0.16,7.67,4.06,9.73,11.06,8
		c-2.41,1.5-4.82,3-7.39,4.6c1.31,2.78,2.49,5.29,3.66,7.79c-0.26,0.22-0.53,0.45-0.79,0.67c-1.68-2.25-3.35-4.51-5.25-7.05
		c-3.02,2.88-5.14,4.89-7.26,6.91c-0.15-0.08-0.3-0.16-0.45-0.24c1.14-2.68,2.28-5.36,3.54-8.32c-2.72-1.43-5.3-2.8-7.88-4.16
		C540.21,542.64,540.26,542.4,540.32,542.16z"/>
	<linearGradient id="SVGID_47_" gradientUnits="userSpaceOnUse" x1="637.8663" y1="325.0531" x2="651.8146" y2="325.0531">
		<stop  offset="0" style="stop-color:#0F24ED"/>
		<stop  offset="1" style="stop-color:#000000"/>
	</linearGradient>
	<linearGradient id="SVGID_48_" gradientUnits="userSpaceOnUse" x1="637.1692" y1="325.1379" x2="652.5275" y2="325.1379">
		<stop  offset="0" style="stop-color:#FFFFFF"/>
		<stop  offset="1" style="stop-color:#000000"/>
	</linearGradient>
	<path class="st23" d="M647.55,330.71c-3.11-1.87-6.17-3.71-9.68-5.81c1.08-1.69,1.98-3.4,3.18-4.85c0.42-0.51,1.8-0.83,2.36-0.53
		c2.86,1.55,5.6,3.33,8.41,5.05C650.3,326.74,649.06,328.53,647.55,330.71z"/>
	<linearGradient id="SVGID_49_" gradientUnits="userSpaceOnUse" x1="386.7569" y1="303.0652" x2="410.4486" y2="303.0652">
		<stop  offset="0" style="stop-color:#0F24ED"/>
		<stop  offset="1" style="stop-color:#000000"/>
	</linearGradient>
	<linearGradient id="SVGID_50_" gradientUnits="userSpaceOnUse" x1="386.1747" y1="303.0652" x2="411.6949" y2="303.0652">
		<stop  offset="0" style="stop-color:#FFFFFF"/>
		<stop  offset="1" style="stop-color:#000000"/>
	</linearGradient>
	<path class="st24" d="M407.78,302.68c0.8,0.3,1.59,0.6,2.67,1.01c-3.92,1.96-7.46,4.06-12.07,2.1c-3.74-1.59-7.75-2.56-11.63-3.8
		c0.58-2.77,2.1-2.71,4.03-2.07c3.81,1.26,7.6,2.63,11.5,3.47C404,303.76,405.95,302.95,407.78,302.68
		C407.79,302.68,407.78,302.68,407.78,302.68z"/>
	<linearGradient id="SVGID_51_" gradientUnits="userSpaceOnUse" x1="654.8376" y1="369.3349" x2="663.2883" y2="369.3349">
		<stop  offset="0" style="stop-color:#0F24ED"/>
		<stop  offset="1" style="stop-color:#000000"/>
	</linearGradient>
	<linearGradient id="SVGID_52_" gradientUnits="userSpaceOnUse" x1="654.0599" y1="369.4469" x2="663.7883" y2="369.4469">
		<stop  offset="0" style="stop-color:#FFFFFF"/>
		<stop  offset="1" style="stop-color:#000000"/>
	</linearGradient>
	<path class="st25" d="M654.84,368.38c2.34-1.26,4.14-2.58,6.14-3.06c0.49-0.12,2.62,2.89,2.27,3.81c-0.6,1.58-2.55,2.65-4.24,4.22
		C657.53,371.59,656.43,370.28,654.84,368.38z"/>
	<linearGradient id="SVGID_53_" gradientUnits="userSpaceOnUse" x1="653.2252" y1="331.4536" x2="655.9261" y2="331.4536">
		<stop  offset="0" style="stop-color:#0F24ED"/>
		<stop  offset="1" style="stop-color:#000000"/>
	</linearGradient>
	<linearGradient id="SVGID_54_" gradientUnits="userSpaceOnUse" x1="652.7252" y1="331.5155" x2="656.6268" y2="331.5155">
		<stop  offset="0" style="stop-color:#FFFFFF"/>
		<stop  offset="1" style="stop-color:#000000"/>
	</linearGradient>
	<path class="st26" d="M654.58,329.12c0.4,1.38,0.79,2.77,1.34,4.69c-1.2-0.21-2.68-0.32-2.69-0.49c-0.07-1.4,0.14-2.81,0.27-4.21
		C653.87,329.11,654.22,329.11,654.58,329.12z"/>
</g>
</svg>
